<svg version="1.1" id="Layer_1" xmlns="http://www.w3.org/2000/svg" xmlns:xlink="http://www.w3.org/1999/xlink" x="0px" y="0px"
	 width="100%" viewBox="0 0 2000 1500" enable-background="new 0 0 2000 1500" xml:space="preserve">
<path fill="#0A1627" opacity="1.000000" stroke="none" 
	d="
M1053.000000,1501.000000 
	C702.000122,1501.000000 351.500214,1501.000000 1.000235,1501.000000 
	C1.000157,1001.000244 1.000157,501.000519 1.000078,1.000571 
	C667.666199,1.000380 1334.332397,1.000380 2000.999023,1.000190 
	C2000.999268,500.999390 2000.999268,1000.998779 2000.999634,1500.999023 
	C1685.166626,1501.000000 1369.333374,1501.000000 1053.000000,1501.000000 
M1052.790161,805.500061 
	C1052.790161,723.564148 1052.790161,641.628235 1052.790161,559.445557 
	C1033.137207,559.445557 1014.094238,559.445557 994.342529,559.445557 
	C994.342529,616.901550 994.342529,674.042664 994.342529,731.183777 
	C992.397583,729.876160 991.395447,728.416443 990.481995,726.903137 
	C957.613953,672.449768 924.724976,618.008972 891.966003,563.490112 
	C890.005371,560.226990 887.946167,558.965942 884.083984,559.024536 
	C868.089844,559.267273 852.089844,559.126343 836.092041,559.126404 
	C834.496521,559.126404 832.900940,559.126465 831.289124,559.126465 
	C831.289124,649.752380 831.289124,739.654236 831.289124,829.631592 
	C850.671509,829.631592 869.736633,829.631592 889.392090,829.631592 
	C889.392090,772.142517 889.392090,714.981079 889.392090,657.819641 
	C891.234070,659.135559 892.220947,660.631470 893.146057,662.164673 
	C926.091858,716.765930 959.054443,771.357056 991.909668,826.012756 
	C993.654602,828.915405 995.486572,830.113098 998.947083,830.049927 
	C1011.274658,829.824768 1023.608765,829.961914 1035.940430,829.961975 
	C1041.385254,829.961975 1046.830078,829.962036 1052.790039,829.962036 
	C1052.790039,821.748718 1052.790039,814.124390 1052.790161,805.500061 
M402.128326,788.500000 
	C402.128326,802.245911 402.128326,815.991882 402.128326,829.599487 
	C463.550446,829.599487 524.124329,829.599487 584.738892,829.599487 
	C584.738892,813.970032 584.738892,798.705688 584.738892,782.879272 
	C543.433533,782.879272 502.376465,782.879272 461.176514,782.879272 
	C461.176514,759.585999 461.176514,736.858215 461.176514,713.621277 
	C496.255157,713.621277 531.002747,713.621277 566.042114,713.621277 
	C566.042114,698.208984 566.042114,683.307556 566.042114,667.824219 
	C530.859863,667.824219 495.963440,667.824219 461.178711,667.824219 
	C461.178711,647.140625 461.178711,627.040588 461.178711,606.260437 
	C502.548401,606.260437 543.585754,606.260437 584.451660,606.260437 
	C584.451660,590.176331 584.451660,574.780762 584.451660,559.407104 
	C523.580322,559.407104 463.148621,559.407104 402.842438,559.407104 
	C402.558044,559.967224 402.286377,560.252502 402.286133,560.538025 
	C402.221161,636.192017 402.174988,711.846008 402.128326,788.500000 
M787.454895,642.500366 
	C787.454895,609.906982 787.454895,577.313538 787.454895,544.651733 
	C768.233582,544.651733 749.807739,544.651733 730.805115,544.651733 
	C730.805115,578.308777 730.805115,611.653687 730.805115,645.813232 
	C727.538147,642.810059 725.135254,640.284729 722.420898,638.156738 
	C703.213074,623.098389 681.606445,622.084473 659.388306,628.772583 
	C635.455505,635.976746 621.310669,653.686523 613.101318,676.342102 
	C602.908142,704.472229 602.535645,733.469727 607.735229,762.586975 
	C611.385498,783.027893 619.859558,801.130188 635.147644,815.830444 
	C658.539429,838.322876 707.150391,842.561157 731.822693,811.425110 
	C732.295410,810.828552 732.934998,810.364197 733.908997,809.452087 
	C734.914062,816.604492 735.834167,823.152161 736.750793,829.674683 
	C753.789185,829.674683 770.376831,829.674683 787.454590,829.674683 
	C787.454590,767.426208 787.454590,705.463318 787.454895,642.500366 
M1003.000061,288.419861 
	C1000.224548,285.157013 999.000610,288.529175 997.654785,289.872070 
	C955.677429,331.757233 913.753723,373.696259 871.828003,415.633209 
	C870.794739,416.666748 869.831055,417.769806 868.726135,418.957367 
	C869.279358,419.657013 869.628845,420.201843 870.075867,420.649231 
	C887.852783,438.441956 905.599670,456.265198 923.503174,473.929840 
	C924.815552,475.224762 927.266785,475.950409 929.190857,475.954803 
	C976.997009,476.064209 1024.803589,476.081177 1072.609375,475.916077 
	C1074.909668,475.908142 1077.758667,474.650787 1079.415039,473.022339 
	C1096.518921,456.207001 1113.432861,439.198547 1130.385742,422.229919 
	C1131.401367,421.213348 1132.297485,420.077545 1133.388672,418.838898 
	C1089.926270,375.371338 1046.713623,332.153687 1003.000061,288.419861 
M936.956726,1150.543091 
	C958.230896,1171.821289 979.505066,1193.099365 1000.143555,1213.741699 
	C1044.554565,1169.329346 1088.543335,1125.339478 1132.715942,1081.165649 
	C1114.779541,1063.223633 1096.458862,1044.825195 1077.982910,1026.583984 
	C1076.802734,1025.418701 1074.419556,1025.027710 1072.594727,1025.024536 
	C1024.789917,1024.942627 976.984802,1024.924072 929.180359,1025.076050 
	C927.020813,1025.082886 924.348938,1026.259399 922.791077,1027.785034 
	C908.987244,1041.302979 895.405212,1055.046997 881.702454,1068.668701 
	C877.358398,1072.987183 872.848755,1077.139282 868.082153,1081.684692 
	C891.285278,1104.882446 913.870972,1127.462891 936.956726,1150.543091 
M1234.877197,638.598816 
	C1217.846558,627.465942 1198.799194,624.321655 1178.989868,625.237793 
	C1141.622681,626.965820 1114.661865,644.699280 1099.189453,678.964783 
	C1089.394531,700.656616 1087.969360,723.677490 1089.967651,747.014160 
	C1091.752686,767.860657 1099.241577,786.464844 1113.334106,802.091187 
	C1131.752319,822.514160 1155.263672,831.856445 1182.346558,833.462036 
	C1213.111816,835.286072 1240.389282,827.511536 1262.493408,805.072388 
	C1264.777954,802.753235 1266.725220,800.101807 1268.934326,797.479553 
	C1259.768188,786.975586 1250.936157,776.854553 1241.823730,766.412109 
	C1234.156494,775.926453 1225.038086,782.443665 1213.743286,785.407166 
	C1196.570679,789.912781 1179.703247,790.381470 1164.488647,779.350220 
	C1154.009644,771.752563 1148.706909,761.022583 1146.480347,747.751343 
	C1189.132446,747.751343 1231.018188,747.751343 1274.398804,747.751343 
	C1273.196899,730.079468 1273.247314,712.837830 1270.585571,696.025635 
	C1266.868408,672.546997 1255.829834,652.678955 1234.877197,638.598816 
M1326.198730,694.308105 
	C1331.657837,703.841492 1336.979004,713.458252 1342.654541,722.861023 
	C1344.527832,725.964539 1344.516113,728.235046 1342.690430,731.394653 
	C1324.786011,762.381165 1307.058960,793.470215 1289.294922,824.537720 
	C1288.421265,826.065613 1287.669189,827.663086 1286.761353,829.420166 
	C1287.683960,829.680847 1288.124023,829.913269 1288.564331,829.913940 
	C1306.892334,829.942261 1325.221313,830.033875 1343.546509,829.812683 
	C1345.141968,829.793518 1347.318237,828.045410 1348.197510,826.511658 
	C1354.570190,815.394287 1360.678589,804.125549 1366.870850,792.904846 
	C1371.282471,784.910767 1375.694702,776.916992 1380.408325,768.376892 
	C1381.567139,770.343384 1382.417969,771.728577 1383.213013,773.144958 
	C1393.070679,790.707642 1403.000122,808.230957 1412.695190,825.882996 
	C1414.350464,828.896790 1416.107300,830.091919 1419.612061,830.050415 
	C1436.271606,829.853455 1452.935059,829.967957 1469.597046,829.952637 
	C1471.014282,829.951355 1472.431519,829.810669 1474.596436,829.694763 
	C1473.358887,827.408203 1472.466431,825.682983 1471.506104,823.996338 
	C1453.883423,793.039734 1436.299805,762.060547 1418.549072,731.177490 
	C1416.808594,728.149414 1416.917725,725.988647 1418.621704,723.026611 
	C1435.635986,693.448181 1452.497803,663.782043 1469.391724,634.134399 
	C1470.267334,632.597717 1471.043335,631.004333 1472.186768,628.825562 
	C1452.687744,628.825562 1433.900146,628.750183 1415.116211,628.975952 
	C1413.691162,628.993103 1411.799072,630.869202 1410.956909,632.353821 
	C1402.579468,647.119934 1394.381836,661.987854 1386.122314,676.820862 
	C1384.366455,679.973999 1382.565063,683.101868 1380.468872,686.797913 
	C1379.080566,684.324402 1378.009888,682.468384 1376.986938,680.586365 
	C1368.403687,664.792664 1359.731079,649.045959 1351.334106,633.153748 
	C1349.631714,629.931946 1347.778442,628.672607 1344.070801,628.723816 
	C1328.244873,628.942200 1312.414307,628.816589 1296.585327,628.816528 
	C1294.317017,628.816528 1292.048584,628.816528 1288.828369,628.816528 
	C1301.488892,650.972778 1313.682129,672.311462 1326.198730,694.308105 
M1514.945557,808.512817 
	C1520.597290,819.003174 1529.220825,826.026550 1540.462158,829.647156 
	C1559.130493,835.660095 1577.873535,834.680969 1596.605591,829.709900 
	C1599.247192,829.008850 1599.798828,827.471924 1599.785522,824.987732 
	C1599.723267,813.322693 1599.831421,801.656738 1599.838745,789.991150 
	C1599.839478,788.902405 1599.560059,787.813538 1599.405396,786.687134 
	C1594.933716,786.955933 1590.790161,787.295410 1586.639893,787.438904 
	C1568.871704,788.053101 1563.892090,783.277405 1563.868286,765.482910 
	C1563.828125,735.318909 1563.852173,705.154724 1563.866333,674.990662 
	C1563.867065,673.387146 1564.025269,671.783752 1564.134521,669.717285 
	C1575.478882,669.717285 1586.404297,669.717285 1597.494141,669.717285 
	C1597.494141,655.857605 1597.494141,642.492798 1597.494141,628.643494 
	C1586.169556,628.643494 1575.233765,628.643494 1563.693115,628.643494 
	C1563.693115,611.937744 1563.693115,595.711182 1563.693115,579.420959 
	C1544.812866,579.420959 1526.556152,579.420959 1507.636475,579.420959 
	C1507.636475,595.928589 1507.636475,612.154602 1507.636475,628.965393 
	C1497.758179,628.965393 1488.530762,628.965393 1479.299316,628.965393 
	C1479.299316,642.819641 1479.299316,656.068298 1479.299316,669.926025 
	C1488.810547,669.926025 1498.040649,669.926025 1507.730591,669.926025 
	C1507.730591,672.497620 1507.727051,674.462891 1507.731079,676.428162 
	C1507.802979,711.257324 1507.774780,746.087158 1508.015015,780.915161 
	C1508.079956,790.321228 1510.262451,799.399414 1514.945557,808.512817 
M1206.500000,1024.958862 
	C1184.772339,1024.958862 1163.044678,1024.958862 1141.431641,1024.958862 
	C1141.431641,1043.106323 1141.431641,1060.499634 1141.431641,1077.845703 
	C1203.984985,1077.845703 1266.183838,1077.845703 1328.555420,1077.845703 
	C1328.555420,1060.156738 1328.555420,1042.771851 1328.555420,1024.958862 
	C1288.012817,1024.958862 1247.756348,1024.958862 1206.500000,1024.958862 
M773.500000,1024.958862 
	C740.127197,1024.958862 706.754333,1024.958862 673.396790,1024.958862 
	C673.396790,1043.046753 673.396790,1060.306763 673.396790,1077.817627 
	C735.946594,1077.817627 798.256226,1077.817627 860.628845,1077.817627 
	C860.628845,1060.096436 860.628845,1042.707886 860.628845,1024.958862 
	C831.719360,1024.958862 803.109680,1024.958862 773.500000,1024.958862 
M673.192505,463.483063 
	C673.192505,467.582092 673.192505,471.681091 673.192505,475.690063 
	C736.131226,475.690063 798.358215,475.690063 860.551025,475.690063 
	C860.551025,457.933868 860.551025,440.531311 860.551025,423.201538 
	C797.988525,423.201538 735.770813,423.201538 673.192505,423.201538 
	C673.192505,436.548126 673.192505,449.517822 673.192505,463.483063 
M1229.500000,476.041473 
	C1262.441895,476.041473 1295.383789,476.041473 1328.532715,476.041473 
	C1328.532715,458.109222 1328.532715,440.710358 1328.532715,423.107147 
	C1266.025269,423.107147 1203.802246,423.107147 1141.373901,423.107147 
	C1141.373901,440.792389 1141.373901,458.191284 1141.373901,476.041473 
	C1170.593750,476.041473 1199.546875,476.041473 1229.500000,476.041473 
M889.500000,476.049408 
	C897.713684,476.049408 905.927429,476.049408 913.633972,476.049408 
	C898.067444,460.487640 882.611389,445.036316 867.302490,429.732117 
	C867.302490,444.686981 867.302490,460.202209 867.302490,476.049408 
	C874.564087,476.049408 881.532104,476.049408 889.500000,476.049408 
M1134.881958,475.228302 
	C1134.881958,459.859589 1134.881958,444.490906 1134.881958,429.384583 
	C1119.247803,445.016144 1103.801514,460.459869 1088.344971,475.913818 
	C1103.394531,475.913818 1118.801880,475.913818 1134.881958,475.228302 
M1124.473999,1024.950684 
	C1112.285889,1024.950684 1100.097778,1024.950684 1089.538818,1024.950684 
	C1104.545044,1039.963257 1119.950195,1055.374634 1134.688721,1070.119263 
	C1134.688721,1056.053345 1134.688721,1040.652466 1134.688721,1024.950684 
	C1131.410645,1024.950684 1128.436401,1024.950684 1124.473999,1024.950684 
M867.045959,1051.499756 
	C867.045959,1058.226074 867.045959,1064.952393 867.045959,1070.841675 
	C882.388245,1055.474121 897.825867,1040.011230 912.519470,1025.293457 
	C898.325439,1025.293457 882.791138,1025.293457 867.043945,1025.293457 
	C867.043945,1033.922974 867.043945,1042.211426 867.045959,1051.499756 
M852.946350,929.471985 
	C850.609802,923.968689 848.268372,918.467407 845.937805,912.961548 
	C842.338867,904.459412 842.341919,904.454895 833.088379,904.839661 
	C832.799133,904.851624 832.519104,905.086609 832.030396,905.311890 
	C832.030396,921.973572 832.030396,938.713074 832.030396,955.605225 
	C833.839294,955.605225 835.420227,955.605225 837.601929,955.605225 
	C837.601929,940.333130 837.601929,925.322571 837.601929,910.311951 
	C839.461670,911.589111 840.284668,913.098206 840.966309,914.668518 
	C845.926147,926.095459 850.857605,937.534607 855.797791,948.970032 
	C859.161621,956.756531 860.214294,957.257751 868.761658,955.172791 
	C868.761658,938.444641 868.761658,921.729248 868.761658,904.686218 
	C866.845459,904.830872 865.282837,904.948914 863.119080,905.112305 
	C863.119080,920.475647 863.119080,935.424988 863.119080,950.374390 
	C862.739746,950.440247 862.360474,950.506104 861.981140,950.571960 
	C859.051819,943.779724 856.122437,936.987488 852.946350,929.471985 
M1028.270142,932.246155 
	C1027.387939,931.408569 1026.548706,929.911987 1025.615723,929.850952 
	C1022.142090,929.623596 1018.637207,929.856934 1015.145264,929.957642 
	C1014.888123,929.965088 1014.640198,930.292786 1014.082153,930.688477 
	C1014.230164,931.900452 1014.397278,933.269531 1014.569458,934.679565 
	C1017.470337,934.815613 1019.928467,934.930908 1022.783508,935.064819 
	C1022.783508,936.999268 1022.779968,938.626587 1022.784119,940.253845 
	C1022.814087,951.864807 1022.604919,952.061218 1010.881165,951.403564 
	C1003.615723,950.996094 999.894409,948.376160 999.057983,941.087769 
	C998.251892,934.063538 998.174194,926.801086 998.994629,919.785767 
	C999.922668,911.849243 1003.891418,909.001892 1012.006714,909.093506 
	C1017.264099,909.152771 1022.514954,909.792542 1027.768677,910.172241 
	C1028.117798,909.800476 1028.466797,909.428711 1028.815918,909.056946 
	C1027.690430,907.783020 1026.690186,905.565979 1025.418091,905.397278 
	C1019.665710,904.634155 1013.815735,903.947449 1008.040222,904.185547 
	C1000.893311,904.480225 995.903259,908.364258 993.863098,915.480225 
	C991.137573,924.986572 991.172974,934.559509 993.568420,944.095032 
	C995.448486,951.578613 1000.362549,955.981873 1008.127014,956.178040 
	C1014.712585,956.344482 1021.318359,955.710999 1028.276489,955.416138 
	C1028.276489,947.392822 1028.276489,940.257996 1028.270142,932.246155 
M424.387756,909.789917 
	C427.172363,909.789917 429.956940,909.789917 432.940674,909.789917 
	C432.940674,907.899231 432.940674,906.497009 432.940674,904.990479 
	C422.576141,904.990479 412.478607,904.990479 402.393250,904.990479 
	C402.393250,922.011230 402.393250,938.752991 402.393250,955.589233 
	C412.774109,955.589233 422.821167,955.589233 433.201996,955.589233 
	C433.091614,953.864319 433.002716,952.475586 432.888031,950.683777 
	C424.435059,950.683777 416.353149,950.683777 408.248413,950.683777 
	C408.248413,944.329834 408.248413,938.411743 408.248413,932.184448 
	C415.195587,932.184448 421.835266,932.184448 428.633301,932.184448 
	C428.633301,930.460999 428.633301,929.055176 428.633301,927.048584 
	C421.635071,927.048584 414.906860,927.048584 408.234253,927.048584 
	C408.234253,921.023132 408.234253,915.603760 408.234253,909.789917 
	C413.488403,909.789917 418.453064,909.789917 424.387756,909.789917 
M439.900574,935.954651 
	C439.984711,938.944702 439.788330,941.974731 440.207794,944.916992 
	C441.281219,952.446472 445.280334,956.475464 452.224670,956.408813 
	C457.922791,956.354248 463.612549,955.431091 469.647766,954.860657 
	C469.647766,938.082214 469.647766,920.699097 469.647766,903.202515 
	C467.777527,903.202515 466.065735,903.202515 463.866211,903.202515 
	C463.866211,908.652710 463.866211,913.696472 463.866211,918.937622 
	C462.376312,918.709045 461.400299,918.551331 460.421875,918.410339 
	C446.776123,916.443298 440.809875,921.305237 439.900574,935.954651 
M905.951233,955.634766 
	C906.708069,954.399536 907.464905,953.164307 908.759705,951.051025 
	C903.071716,951.306335 898.945007,951.694031 894.824951,951.632568 
	C887.184143,951.518738 884.333679,948.089294 885.052429,939.588867 
	C892.868896,939.588867 900.763794,939.588867 909.149353,939.588867 
	C908.913269,935.794922 909.033630,932.616394 908.463440,929.566956 
	C906.997192,921.725220 902.629395,918.240967 894.604614,918.056091 
	C886.835693,917.877136 881.177856,921.384460 880.026733,928.767944 
	C879.077637,934.855591 879.392212,941.292847 880.158875,947.449036 
	C880.817810,952.740295 884.770447,955.952759 890.207458,956.190979 
	C895.162292,956.408081 900.146973,955.942688 905.951233,955.634766 
M1039.124146,950.128662 
	C1041.830933,952.120117 1044.340088,955.364014 1047.287720,955.829285 
	C1052.604248,956.668335 1058.199219,956.026733 1063.638550,955.553406 
	C1064.654541,955.464966 1065.487061,953.267029 1067.161377,951.031799 
	C1061.250854,951.301819 1057.117920,951.690613 1052.990967,951.635864 
	C1045.366699,951.534607 1042.438477,947.981689 1043.288208,939.794067 
	C1051.004639,939.794067 1058.778931,939.794067 1066.757812,939.794067 
	C1066.757812,936.085693 1067.193604,932.729187 1066.670898,929.529297 
	C1065.419678,921.869812 1060.744385,918.228271 1052.734375,918.057129 
	C1044.991821,917.891663 1039.050415,921.527710 1038.187256,928.816284 
	C1037.388794,935.558594 1038.558960,942.533997 1039.124146,950.128662 
M552.579834,953.927795 
	C555.689758,954.757751 558.866821,956.466797 561.895752,956.235718 
	C568.306030,955.746643 574.633972,953.143555 581.025513,956.345032 
	C581.185059,956.424988 581.559875,956.075073 582.332642,955.654297 
	C581.983215,954.510864 581.923279,952.412720 581.147705,952.102234 
	C577.561401,950.666565 578.065430,947.793335 578.058960,944.999207 
	C578.046204,939.514160 578.183960,934.022888 577.968872,928.545593 
	C577.714539,922.067627 574.552795,918.540161 568.153870,918.249878 
	C563.548828,918.041016 558.860535,918.594238 554.296082,919.338806 
	C553.195007,919.518433 552.437012,921.801147 550.951233,923.935425 
	C556.331360,923.561768 559.969116,923.179810 563.614502,923.082947 
	C571.231995,922.880676 572.846252,924.741028 572.082703,933.101807 
	C568.599365,933.445618 564.995178,933.734924 561.408264,934.167847 
	C550.124268,935.529541 546.309082,943.406494 552.579834,953.927795 
M629.961060,943.575256 
	C631.926453,954.440918 637.914185,958.134521 650.060852,956.125366 
	C655.221497,955.271790 659.149597,952.469849 659.739136,947.424438 
	C660.499634,940.915588 660.691528,934.157959 659.802063,927.689819 
	C658.904053,921.159424 653.770020,918.225525 645.991394,918.059814 
	C637.749695,917.884338 632.548279,920.506165 631.077148,926.927185 
	C629.910645,932.018555 630.221191,937.448364 629.961060,943.575256 
M749.833313,926.516785 
	C749.493958,932.253784 748.476807,938.049561 748.968689,943.714417 
	C749.776917,953.021667 754.347107,956.516846 763.951172,956.582397 
	C773.549072,956.647888 777.934753,953.298218 779.250366,943.992371 
	C779.867249,939.628784 779.835938,935.039795 779.244812,930.668335 
	C778.163574,922.673340 774.910645,919.491089 767.867554,918.289490 
	C759.656982,916.888672 753.696655,919.392151 749.833313,926.516785 
M699.687561,948.355225 
	C699.457642,941.532471 699.557861,934.677917 698.905151,927.895813 
	C698.249207,921.080688 694.783508,918.012146 687.949036,918.174316 
	C682.115723,918.312683 676.302490,919.303223 670.434082,919.921692 
	C670.434082,931.531433 670.434082,943.599976 670.434082,955.987244 
	C672.402100,955.824097 673.967041,955.694336 675.361755,955.578735 
	C675.587341,954.786743 675.753601,954.472900 675.755005,954.158447 
	C675.790405,945.993469 675.976746,937.823669 675.748230,929.665588 
	C675.655212,926.342468 676.955444,924.943054 679.945251,924.080505 
	C689.890015,921.211609 693.801575,923.906067 693.965271,934.156860 
	C694.078979,941.279358 693.987183,948.405151 693.987183,955.909546 
	C696.159729,955.804565 697.715027,955.729492 699.687500,955.634216 
	C699.687500,953.260681 699.687500,951.284668 699.687561,948.355225 
M486.669434,947.440247 
	C486.222198,938.035278 485.774963,928.630310 485.312531,918.905762 
	C483.568817,918.988281 481.990173,919.062927 480.728638,919.122620 
	C480.728638,928.456482 480.229156,937.436035 480.877686,946.331848 
	C481.455872,954.263123 485.330902,956.999023 493.281433,956.436829 
	C495.725128,956.264099 498.099609,955.259094 500.542023,954.853516 
	C501.598663,954.677917 502.749329,955.039246 503.853455,955.185547 
	C505.490387,955.402527 507.123932,955.644958 508.886902,955.894836 
	C508.886902,943.243347 508.886902,931.307129 508.886902,919.157593 
	C507.119904,919.157593 505.555450,919.157593 503.587769,919.157593 
	C503.587769,927.867981 503.627197,936.336365 503.549072,944.803711 
	C503.536041,946.218079 503.462250,948.010620 502.644501,948.971130 
	C499.621735,952.521729 490.288361,951.962952 486.669434,947.440247 
M1098.458618,926.440491 
	C1099.166504,936.145813 1099.874268,945.851074 1100.590698,955.675659 
	C1101.896484,955.675659 1103.340210,955.675659 1104.840576,955.675659 
	C1104.840576,946.531555 1105.283691,937.556885 1104.704224,928.648682 
	C1104.216309,921.148132 1100.519165,917.974121 1093.409546,918.179260 
	C1087.734375,918.343079 1082.082764,919.324036 1076.203369,919.966003 
	C1076.203369,931.473450 1076.203369,943.528137 1076.203369,955.689453 
	C1077.945068,955.689453 1079.395630,955.689453 1081.366211,955.689453 
	C1081.366211,946.900391 1081.300415,938.285706 1081.428833,929.673950 
	C1081.451050,928.179199 1081.836426,926.150208 1082.841797,925.305969 
	C1086.614380,922.137817 1094.105103,922.529785 1098.458618,926.440491 
M727.739563,931.515076 
	C727.739563,939.481384 727.739563,947.447693 727.739563,955.591553 
	C729.714111,955.591553 731.286377,955.591553 733.344360,955.591553 
	C733.344360,944.923767 733.344360,934.536255 733.344360,923.669250 
	C737.088806,923.669250 740.351135,923.669250 743.763733,923.669250 
	C743.763733,921.911865 743.763733,920.649902 743.763733,918.818115 
	C740.202576,918.818115 736.816406,918.818115 733.512268,918.818115 
	C732.564636,908.339111 733.091736,907.788818 744.759399,906.659363 
	C745.359619,904.157654 745.384216,902.480408 741.860962,902.117310 
	C731.489929,901.048523 728.220703,903.724243 727.787170,914.200378 
	C727.727234,915.649780 727.571533,917.095154 727.467468,918.446960 
	C725.771973,918.840637 724.399963,919.159119 721.180542,919.906616 
	C723.873169,922.222290 725.500000,923.621460 727.739563,925.547546 
	C727.739563,926.557495 727.739563,928.538208 727.739563,931.515076 
M950.204224,923.782959 
	C951.066223,925.005859 952.617004,926.197083 952.674988,927.456970 
	C952.980713,934.099243 952.701416,940.769165 953.028748,947.409607 
	C953.352600,953.980896 956.385132,956.652222 962.932800,956.609802 
	C965.078186,956.595886 967.223022,956.155457 969.361328,955.860291 
	C969.620361,955.824524 969.836365,955.477234 970.370178,955.018311 
	C970.136047,953.867126 969.864319,952.531311 969.587585,951.170532 
	C967.312317,951.358887 965.491455,951.630859 963.670410,951.632385 
	C960.830688,951.634827 958.698242,950.422485 958.654541,947.316650 
	C958.545776,939.598450 958.618774,931.877686 958.618774,923.677856 
	C962.435974,923.677856 966.032471,923.677856 970.007690,923.677856 
	C969.867065,921.801636 969.764954,920.439270 969.634644,918.700806 
	C965.634644,918.700806 962.054443,918.700806 958.094788,918.700806 
	C958.094788,914.846375 958.094788,911.396057 958.094788,907.546997 
	C956.132019,907.650818 954.587158,907.732483 952.611328,907.836975 
	C952.611328,911.707336 952.611328,915.120361 952.611328,918.647888 
	C950.737915,918.844055 949.303223,918.994263 946.557495,919.281738 
	C947.761658,921.225037 948.544067,922.487793 950.204224,923.782959 
M915.941833,955.890015 
	C917.807861,954.924683 920.232117,954.403564 921.426025,952.903320 
	C924.081848,949.566223 926.121826,945.739197 928.321350,942.256592 
	C934.351562,945.615723 933.085083,956.454712 943.670959,955.858154 
	C941.176575,951.760376 939.450928,947.923706 936.832336,944.847046 
	C932.368530,939.602295 932.225586,935.001160 936.778198,929.737183 
	C939.391907,926.715027 941.176575,922.976013 943.360474,919.518372 
	C938.209961,917.429138 936.544495,920.553467 934.719055,923.697449 
	C932.918640,926.798279 930.860046,929.749207 928.693970,933.108215 
	C926.502502,929.583618 924.577332,926.668518 922.840698,923.645142 
	C920.948914,920.351746 919.052368,917.310364 914.229004,919.513611 
	C914.994812,920.810791 915.733643,922.081665 916.490845,923.341431 
	C919.308899,928.029968 924.347534,932.722046 924.332520,937.399231 
	C924.317444,942.083679 919.182190,946.708618 916.459290,951.456055 
	C915.722534,952.740662 915.594788,954.374634 915.941833,955.890015 
M596.367859,936.487549 
	C596.367859,932.395264 596.367859,928.303040 596.367859,923.696960 
	C600.603149,923.696960 604.188538,923.696960 607.894226,923.696960 
	C607.894226,921.892212 607.894226,920.625610 607.894226,918.885498 
	C604.110229,918.885498 600.517151,918.885498 597.019836,918.885498 
	C594.909180,907.459717 594.909180,907.459717 590.854004,908.268860 
	C590.854004,911.635437 590.854004,915.079895 590.854004,918.544983 
	C588.953186,918.842957 587.414551,919.084167 586.230469,919.269775 
	C584.187988,924.632324 588.452148,923.457825 590.945679,924.221313 
	C590.945679,927.840088 590.841858,931.324890 590.969849,934.801025 
	C591.164917,940.097656 590.995300,945.485657 591.953003,950.654724 
	C592.946716,956.018127 604.654541,959.155029 608.581787,955.062500 
	C608.382629,953.988647 608.130859,952.630981 607.891174,951.338562 
	C596.721863,951.707336 596.718750,951.707458 596.383240,940.974854 
	C596.346924,939.811340 596.371582,938.646057 596.367859,936.487549 
M534.454590,956.501160 
	C536.446716,956.328552 538.436035,956.102478 540.431641,955.994812 
	C544.286255,955.786865 544.294006,953.853333 542.915649,951.141724 
	C525.106750,951.044189 523.664368,949.920837 524.015747,935.776306 
	C524.341675,922.655762 528.557434,922.344788 543.189087,923.454346 
	C543.282166,922.081177 543.374817,920.713196 543.471313,919.289429 
	C540.695801,918.866333 538.410278,918.404297 536.101685,918.185303 
	C524.981140,917.129944 519.829529,921.104187 518.472839,932.118469 
	C518.049805,935.553345 518.089783,939.132690 518.523499,942.569458 
	C519.874329,953.274719 522.671875,955.743408 534.454590,956.501160 
M794.476746,950.213379 
	C794.476746,947.056030 794.476746,943.898743 794.476746,940.741394 
	C794.476746,927.759827 794.477722,927.762756 807.200439,923.728333 
	C807.456909,923.646973 807.614258,923.252930 808.006653,922.774658 
	C807.909973,921.425293 807.798401,919.867371 807.645447,917.731934 
	C803.050110,919.590759 798.993469,921.231628 794.486572,923.054688 
	C795.046753,918.036743 792.208435,918.663269 789.251587,919.153320 
	C789.251587,931.491089 789.251587,943.552856 789.251587,955.690552 
	C791.001526,955.690552 792.457275,955.690552 794.221741,955.690552 
	C794.312805,954.062378 794.394653,952.599548 794.476746,950.213379 
M620.544495,920.473389 
	C618.837219,919.820068 617.129944,919.166748 615.243164,918.444763 
	C615.243164,931.511353 615.243164,943.586548 615.243164,955.987610 
	C617.131165,955.837280 618.682678,955.713684 620.576355,955.562927 
	C620.576355,943.873352 620.576355,932.593079 620.544495,920.473389 
M619.064209,904.034363 
	C617.813416,904.034363 616.562683,904.034363 615.222778,904.034363 
	C615.222778,906.373047 615.222778,908.237427 615.222778,910.473145 
	C617.064880,910.391541 618.602295,910.323425 620.787781,910.226562 
	C620.433044,907.914246 620.151855,906.081543 619.064209,904.034363 
z"/>
<path fill="#FD0039" opacity="1.000000" stroke="none" 
	d="
M1052.790039,806.000061 
	C1052.790039,814.124390 1052.790039,821.748718 1052.790039,829.962036 
	C1046.830078,829.962036 1041.385254,829.961975 1035.940430,829.961975 
	C1023.608765,829.961914 1011.274658,829.824768 998.947083,830.049927 
	C995.486572,830.113098 993.654602,828.915405 991.909668,826.012756 
	C959.054443,771.357056 926.091858,716.765930 893.146057,662.164673 
	C892.220947,660.631470 891.234070,659.135559 889.392090,657.819641 
	C889.392090,714.981079 889.392090,772.142517 889.392090,829.631592 
	C869.736633,829.631592 850.671509,829.631592 831.289124,829.631592 
	C831.289124,739.654236 831.289124,649.752380 831.289124,559.126465 
	C832.900940,559.126465 834.496521,559.126404 836.092041,559.126404 
	C852.089844,559.126343 868.089844,559.267273 884.083984,559.024536 
	C887.946167,558.965942 890.005371,560.226990 891.966003,563.490112 
	C924.724976,618.008972 957.613953,672.449768 990.481995,726.903137 
	C991.395447,728.416443 992.397583,729.876160 994.342529,731.183777 
	C994.342529,674.042664 994.342529,616.901550 994.342529,559.445557 
	C1014.094238,559.445557 1033.137207,559.445557 1052.790161,559.445557 
	C1052.790161,641.628235 1052.790161,723.564148 1052.790039,806.000061 
z"/>
<path fill="#FC0039" opacity="1.000000" stroke="none" 
	d="
M402.128357,788.000000 
	C402.174988,711.846008 402.221161,636.192017 402.286133,560.538025 
	C402.286377,560.252502 402.558044,559.967224 402.842438,559.407104 
	C463.148621,559.407104 523.580322,559.407104 584.451660,559.407104 
	C584.451660,574.780762 584.451660,590.176331 584.451660,606.260437 
	C543.585754,606.260437 502.548401,606.260437 461.178711,606.260437 
	C461.178711,627.040588 461.178711,647.140625 461.178711,667.824219 
	C495.963440,667.824219 530.859863,667.824219 566.042114,667.824219 
	C566.042114,683.307556 566.042114,698.208984 566.042114,713.621277 
	C531.002747,713.621277 496.255157,713.621277 461.176514,713.621277 
	C461.176514,736.858215 461.176514,759.585999 461.176514,782.879272 
	C502.376465,782.879272 543.433533,782.879272 584.738892,782.879272 
	C584.738892,798.705688 584.738892,813.970032 584.738892,829.599487 
	C524.124329,829.599487 463.550446,829.599487 402.128326,829.599487 
	C402.128326,815.991882 402.128326,802.245911 402.128357,788.000000 
z"/>
<path fill="#FD0039" opacity="1.000000" stroke="none" 
	d="
M787.454712,643.000366 
	C787.454590,705.463318 787.454590,767.426208 787.454590,829.674683 
	C770.376831,829.674683 753.789185,829.674683 736.750793,829.674683 
	C735.834167,823.152161 734.914062,816.604492 733.908997,809.452087 
	C732.934998,810.364197 732.295410,810.828552 731.822693,811.425110 
	C707.150391,842.561157 658.539429,838.322876 635.147644,815.830444 
	C619.859558,801.130188 611.385498,783.027893 607.735229,762.586975 
	C602.535645,733.469727 602.908142,704.472229 613.101318,676.342102 
	C621.310669,653.686523 635.455505,635.976746 659.388306,628.772583 
	C681.606445,622.084473 703.213074,623.098389 722.420898,638.156738 
	C725.135254,640.284729 727.538147,642.810059 730.805115,645.813232 
	C730.805115,611.653687 730.805115,578.308777 730.805115,544.651733 
	C749.807739,544.651733 768.233582,544.651733 787.454895,544.651733 
	C787.454895,577.313538 787.454895,609.906982 787.454712,643.000366 
M664.627075,698.216370 
	C660.435913,712.671387 660.038025,727.504272 661.404785,742.273132 
	C662.176941,750.616882 664.080505,759.072815 666.919861,766.957703 
	C671.212585,778.878784 679.753723,786.737000 692.991211,787.902100 
	C707.545654,789.182983 720.129822,785.381531 728.460571,772.426147 
	C729.889038,770.204651 730.811340,767.231384 730.831360,764.596863 
	C731.010864,740.963440 731.001160,717.327698 730.840271,693.694031 
	C730.823364,691.202393 729.980286,688.408630 728.665466,686.284180 
	C720.855652,673.664978 704.985901,667.825317 689.260864,671.583740 
	C675.510010,674.870300 668.825378,684.889709 664.627075,698.216370 
z"/>
<path fill="#C1C1C1" opacity="1.000000" stroke="none" 
	d="
M1003.250488,288.677948 
	C1046.713623,332.153687 1089.926270,375.371338 1133.388672,418.838898 
	C1132.297485,420.077545 1131.401367,421.213348 1130.385742,422.229919 
	C1113.432861,439.198547 1096.518921,456.207001 1079.415039,473.022339 
	C1077.758667,474.650787 1074.909668,475.908142 1072.609375,475.916077 
	C1024.803589,476.081177 976.997009,476.064209 929.190857,475.954803 
	C927.266785,475.950409 924.815552,475.224762 923.503174,473.929840 
	C905.599670,456.265198 887.852783,438.441956 870.075867,420.649231 
	C869.628845,420.201843 869.279358,419.657013 868.726135,418.957367 
	C869.831055,417.769806 870.794739,416.666748 871.828003,415.633209 
	C913.753723,373.696259 955.677429,331.757233 997.654785,289.872070 
	C999.000610,288.529175 1000.224548,285.157013 1003.250488,288.677948 
z"/>
<path fill="#C1C1C1" opacity="1.000000" stroke="none" 
	d="
M936.706665,1150.293213 
	C913.870972,1127.462891 891.285278,1104.882446 868.082153,1081.684692 
	C872.848755,1077.139282 877.358398,1072.987183 881.702454,1068.668701 
	C895.405212,1055.046997 908.987244,1041.302979 922.791077,1027.785034 
	C924.348938,1026.259399 927.020813,1025.082886 929.180359,1025.076050 
	C976.984802,1024.924072 1024.789917,1024.942627 1072.594727,1025.024536 
	C1074.419556,1025.027710 1076.802734,1025.418701 1077.982910,1026.583984 
	C1096.458862,1044.825195 1114.779541,1063.223633 1132.715942,1081.165649 
	C1088.543335,1125.339478 1044.554565,1169.329346 1000.143555,1213.741699 
	C979.505066,1193.099365 958.230896,1171.821289 936.706665,1150.293213 
z"/>
<path fill="#FD0039" opacity="1.000000" stroke="none" 
	d="
M1235.179077,638.796997 
	C1255.829834,652.678955 1266.868408,672.546997 1270.585571,696.025635 
	C1273.247314,712.837830 1273.196899,730.079468 1274.398804,747.751343 
	C1231.018188,747.751343 1189.132446,747.751343 1146.480347,747.751343 
	C1148.706909,761.022583 1154.009644,771.752563 1164.488647,779.350220 
	C1179.703247,790.381470 1196.570679,789.912781 1213.743286,785.407166 
	C1225.038086,782.443665 1234.156494,775.926453 1241.823730,766.412109 
	C1250.936157,776.854553 1259.768188,786.975586 1268.934326,797.479553 
	C1266.725220,800.101807 1264.777954,802.753235 1262.493408,805.072388 
	C1240.389282,827.511536 1213.111816,835.286072 1182.346558,833.462036 
	C1155.263672,831.856445 1131.752319,822.514160 1113.334106,802.091187 
	C1099.241577,786.464844 1091.752686,767.860657 1089.967651,747.014160 
	C1087.969360,723.677490 1089.394531,700.656616 1099.189453,678.964783 
	C1114.661865,644.699280 1141.622681,626.965820 1178.989868,625.237793 
	C1198.799194,624.321655 1217.846558,627.465942 1235.179077,638.796997 
M1162.504639,710.000488 
	C1180.929077,710.000488 1199.353516,710.000488 1217.945679,710.000488 
	C1217.945679,706.377686 1218.231323,703.373230 1217.896240,700.439758 
	C1216.443604,687.725830 1211.390381,677.316711 1198.532715,672.592896 
	C1172.648438,663.083191 1146.869751,681.900452 1147.579102,710.000488 
	C1152.214233,710.000488 1156.860596,710.000488 1162.504639,710.000488 
z"/>
<path fill="#FD0039" opacity="1.000000" stroke="none" 
	d="
M1326.037109,693.979126 
	C1313.682129,672.311462 1301.488892,650.972778 1288.828369,628.816528 
	C1292.048584,628.816528 1294.317017,628.816528 1296.585327,628.816528 
	C1312.414307,628.816589 1328.244873,628.942200 1344.070801,628.723816 
	C1347.778442,628.672607 1349.631714,629.931946 1351.334106,633.153748 
	C1359.731079,649.045959 1368.403687,664.792664 1376.986938,680.586365 
	C1378.009888,682.468384 1379.080566,684.324402 1380.468872,686.797913 
	C1382.565063,683.101868 1384.366455,679.973999 1386.122314,676.820862 
	C1394.381836,661.987854 1402.579468,647.119934 1410.956909,632.353821 
	C1411.799072,630.869202 1413.691162,628.993103 1415.116211,628.975952 
	C1433.900146,628.750183 1452.687744,628.825562 1472.186768,628.825562 
	C1471.043335,631.004333 1470.267334,632.597717 1469.391724,634.134399 
	C1452.497803,663.782043 1435.635986,693.448181 1418.621704,723.026611 
	C1416.917725,725.988647 1416.808594,728.149414 1418.549072,731.177490 
	C1436.299805,762.060547 1453.883423,793.039734 1471.506104,823.996338 
	C1472.466431,825.682983 1473.358887,827.408203 1474.596436,829.694763 
	C1472.431519,829.810669 1471.014282,829.951355 1469.597046,829.952637 
	C1452.935059,829.967957 1436.271606,829.853455 1419.612061,830.050415 
	C1416.107300,830.091919 1414.350464,828.896790 1412.695190,825.882996 
	C1403.000122,808.230957 1393.070679,790.707642 1383.213013,773.144958 
	C1382.417969,771.728577 1381.567139,770.343384 1380.408325,768.376892 
	C1375.694702,776.916992 1371.282471,784.910767 1366.870850,792.904846 
	C1360.678589,804.125549 1354.570190,815.394287 1348.197510,826.511658 
	C1347.318237,828.045410 1345.141968,829.793518 1343.546509,829.812683 
	C1325.221313,830.033875 1306.892334,829.942261 1288.564331,829.913940 
	C1288.124023,829.913269 1287.683960,829.680847 1286.761353,829.420166 
	C1287.669189,827.663086 1288.421265,826.065613 1289.294922,824.537720 
	C1307.058960,793.470215 1324.786011,762.381165 1342.690430,731.394653 
	C1344.516113,728.235046 1344.527832,725.964539 1342.654541,722.861023 
	C1336.979004,713.458252 1331.657837,703.841492 1326.037109,693.979126 
z"/>
<path fill="#FD0039" opacity="1.000000" stroke="none" 
	d="
M1514.778442,808.182312 
	C1510.262451,799.399414 1508.079956,790.321228 1508.015015,780.915161 
	C1507.774780,746.087158 1507.802979,711.257324 1507.731079,676.428162 
	C1507.727051,674.462891 1507.730591,672.497620 1507.730591,669.926025 
	C1498.040649,669.926025 1488.810547,669.926025 1479.299316,669.926025 
	C1479.299316,656.068298 1479.299316,642.819641 1479.299316,628.965393 
	C1488.530762,628.965393 1497.758179,628.965393 1507.636475,628.965393 
	C1507.636475,612.154602 1507.636475,595.928589 1507.636475,579.420959 
	C1526.556152,579.420959 1544.812866,579.420959 1563.693115,579.420959 
	C1563.693115,595.711182 1563.693115,611.937744 1563.693115,628.643494 
	C1575.233765,628.643494 1586.169556,628.643494 1597.494141,628.643494 
	C1597.494141,642.492798 1597.494141,655.857605 1597.494141,669.717285 
	C1586.404297,669.717285 1575.478882,669.717285 1564.134521,669.717285 
	C1564.025269,671.783752 1563.867065,673.387146 1563.866333,674.990662 
	C1563.852173,705.154724 1563.828125,735.318909 1563.868286,765.482910 
	C1563.892090,783.277405 1568.871704,788.053101 1586.639893,787.438904 
	C1590.790161,787.295410 1594.933716,786.955933 1599.405396,786.687134 
	C1599.560059,787.813538 1599.839478,788.902405 1599.838745,789.991150 
	C1599.831421,801.656738 1599.723267,813.322693 1599.785522,824.987732 
	C1599.798828,827.471924 1599.247192,829.008850 1596.605591,829.709900 
	C1577.873535,834.680969 1559.130493,835.660095 1540.462158,829.647156 
	C1529.220825,826.026550 1520.597290,819.003174 1514.778442,808.182312 
z"/>
<path fill="#C1C1C1" opacity="1.000000" stroke="none" 
	d="
M1207.000000,1024.958862 
	C1247.756348,1024.958862 1288.012817,1024.958862 1328.555420,1024.958862 
	C1328.555420,1042.771851 1328.555420,1060.156738 1328.555420,1077.845703 
	C1266.183838,1077.845703 1203.984985,1077.845703 1141.431641,1077.845703 
	C1141.431641,1060.499634 1141.431641,1043.106323 1141.431641,1024.958862 
	C1163.044678,1024.958862 1184.772339,1024.958862 1207.000000,1024.958862 
z"/>
<path fill="#C1C1C1" opacity="1.000000" stroke="none" 
	d="
M774.000000,1024.958862 
	C803.109680,1024.958862 831.719360,1024.958862 860.628845,1024.958862 
	C860.628845,1042.707886 860.628845,1060.096436 860.628845,1077.817627 
	C798.256226,1077.817627 735.946594,1077.817627 673.396790,1077.817627 
	C673.396790,1060.306763 673.396790,1043.046753 673.396790,1024.958862 
	C706.754333,1024.958862 740.127197,1024.958862 774.000000,1024.958862 
z"/>
<path fill="#C1C1C1" opacity="1.000000" stroke="none" 
	d="
M673.192505,462.985291 
	C673.192505,449.517822 673.192505,436.548126 673.192505,423.201538 
	C735.770813,423.201538 797.988525,423.201538 860.551025,423.201538 
	C860.551025,440.531311 860.551025,457.933868 860.551025,475.690063 
	C798.358215,475.690063 736.131226,475.690063 673.192505,475.690063 
	C673.192505,471.681091 673.192505,467.582092 673.192505,462.985291 
z"/>
<path fill="#C1C1C1" opacity="1.000000" stroke="none" 
	d="
M1229.000000,476.041473 
	C1199.546875,476.041473 1170.593750,476.041473 1141.373901,476.041473 
	C1141.373901,458.191284 1141.373901,440.792389 1141.373901,423.107147 
	C1203.802246,423.107147 1266.025269,423.107147 1328.532715,423.107147 
	C1328.532715,440.710358 1328.532715,458.109222 1328.532715,476.041473 
	C1295.383789,476.041473 1262.441895,476.041473 1229.000000,476.041473 
z"/>
<path fill="#BEBEBE" opacity="1.000000" stroke="none" 
	d="
M889.000061,476.049408 
	C881.532104,476.049408 874.564087,476.049408 867.302490,476.049408 
	C867.302490,460.202209 867.302490,444.686981 867.302490,429.732117 
	C882.611389,445.036316 898.067444,460.487640 913.633972,476.049408 
	C905.927429,476.049408 897.713684,476.049408 889.000061,476.049408 
z"/>
<path fill="#BEBEBE" opacity="1.000000" stroke="none" 
	d="
M1134.545654,475.571045 
	C1118.801880,475.913818 1103.394531,475.913818 1088.344971,475.913818 
	C1103.801514,460.459869 1119.247803,445.016144 1134.881958,429.384583 
	C1134.881958,444.490906 1134.881958,459.859589 1134.545654,475.571045 
z"/>
<path fill="#BEBEBE" opacity="1.000000" stroke="none" 
	d="
M1124.968018,1024.950684 
	C1128.436401,1024.950684 1131.410645,1024.950684 1134.688721,1024.950684 
	C1134.688721,1040.652466 1134.688721,1056.053345 1134.688721,1070.119263 
	C1119.950195,1055.374634 1104.545044,1039.963257 1089.538818,1024.950684 
	C1100.097778,1024.950684 1112.285889,1024.950684 1124.968018,1024.950684 
z"/>
<path fill="#BEBEBE" opacity="1.000000" stroke="none" 
	d="
M867.044922,1050.999756 
	C867.043945,1042.211426 867.043945,1033.922974 867.043945,1025.293457 
	C882.791138,1025.293457 898.325439,1025.293457 912.519470,1025.293457 
	C897.825867,1040.011230 882.388245,1055.474121 867.045959,1070.841675 
	C867.045959,1064.952393 867.045959,1058.226074 867.044922,1050.999756 
z"/>
<path fill="#BDBEBE" opacity="1.000000" stroke="none" 
	d="
M853.069702,929.833618 
	C856.122437,936.987488 859.051819,943.779724 861.981140,950.571960 
	C862.360474,950.506104 862.739746,950.440247 863.119080,950.374390 
	C863.119080,935.424988 863.119080,920.475647 863.119080,905.112305 
	C865.282837,904.948914 866.845459,904.830872 868.761658,904.686218 
	C868.761658,921.729248 868.761658,938.444641 868.761658,955.172791 
	C860.214294,957.257751 859.161621,956.756531 855.797791,948.970032 
	C850.857605,937.534607 845.926147,926.095459 840.966309,914.668518 
	C840.284668,913.098206 839.461670,911.589111 837.601929,910.311951 
	C837.601929,925.322571 837.601929,940.333130 837.601929,955.605225 
	C835.420227,955.605225 833.839294,955.605225 832.030396,955.605225 
	C832.030396,938.713074 832.030396,921.973572 832.030396,905.311890 
	C832.519104,905.086609 832.799133,904.851624 833.088379,904.839661 
	C842.341919,904.454895 842.338867,904.459412 845.937805,912.961548 
	C848.268372,918.467407 850.609802,923.968689 853.069702,929.833618 
z"/>
<path fill="#BABBBB" opacity="1.000000" stroke="none" 
	d="
M1028.273315,932.684631 
	C1028.276489,940.257996 1028.276489,947.392822 1028.276489,955.416138 
	C1021.318359,955.710999 1014.712585,956.344482 1008.127014,956.178040 
	C1000.362549,955.981873 995.448486,951.578613 993.568420,944.095032 
	C991.172974,934.559509 991.137573,924.986572 993.863098,915.480225 
	C995.903259,908.364258 1000.893311,904.480225 1008.040222,904.185547 
	C1013.815735,903.947449 1019.665710,904.634155 1025.418091,905.397278 
	C1026.690186,905.565979 1027.690430,907.783020 1028.815918,909.056946 
	C1028.466797,909.428711 1028.117798,909.800476 1027.768677,910.172241 
	C1022.514954,909.792542 1017.264099,909.152771 1012.006714,909.093506 
	C1003.891418,909.001892 999.922668,911.849243 998.994629,919.785767 
	C998.174194,926.801086 998.251892,934.063538 999.057983,941.087769 
	C999.894409,948.376160 1003.615723,950.996094 1010.881165,951.403564 
	C1022.604919,952.061218 1022.814087,951.864807 1022.784119,940.253845 
	C1022.779968,938.626587 1022.783508,936.999268 1022.783508,935.064819 
	C1019.928467,934.930908 1017.470337,934.815613 1014.569458,934.679565 
	C1014.397278,933.269531 1014.230164,931.900452 1014.082153,930.688477 
	C1014.640198,930.292786 1014.888123,929.965088 1015.145264,929.957642 
	C1018.637207,929.856934 1022.142090,929.623596 1025.615723,929.850952 
	C1026.548706,929.911987 1027.387939,931.408569 1028.273315,932.684631 
z"/>
<path fill="#B7B8B8" opacity="1.000000" stroke="none" 
	d="
M423.902740,909.789917 
	C418.453064,909.789917 413.488403,909.789917 408.234253,909.789917 
	C408.234253,915.603760 408.234253,921.023132 408.234253,927.048584 
	C414.906860,927.048584 421.635071,927.048584 428.633301,927.048584 
	C428.633301,929.055176 428.633301,930.460999 428.633301,932.184448 
	C421.835266,932.184448 415.195587,932.184448 408.248413,932.184448 
	C408.248413,938.411743 408.248413,944.329834 408.248413,950.683777 
	C416.353149,950.683777 424.435059,950.683777 432.888031,950.683777 
	C433.002716,952.475586 433.091614,953.864319 433.201996,955.589233 
	C422.821167,955.589233 412.774109,955.589233 402.393250,955.589233 
	C402.393250,938.752991 402.393250,922.011230 402.393250,904.990479 
	C412.478607,904.990479 422.576141,904.990479 432.940674,904.990479 
	C432.940674,906.497009 432.940674,907.899231 432.940674,909.789917 
	C429.956940,909.789917 427.172363,909.789917 423.902740,909.789917 
z"/>
<path fill="#B4B5B6" opacity="1.000000" stroke="none" 
	d="
M439.912048,935.533203 
	C440.809875,921.305237 446.776123,916.443298 460.421875,918.410339 
	C461.400299,918.551331 462.376312,918.709045 463.866211,918.937622 
	C463.866211,913.696472 463.866211,908.652710 463.866211,903.202515 
	C466.065735,903.202515 467.777527,903.202515 469.647766,903.202515 
	C469.647766,920.699097 469.647766,938.082214 469.647766,954.860657 
	C463.612549,955.431091 457.922791,956.354248 452.224670,956.408813 
	C445.280334,956.475464 441.281219,952.446472 440.207794,944.916992 
	C439.788330,941.974731 439.984711,938.944702 439.912048,935.533203 
M445.769318,933.836670 
	C445.939789,937.649963 445.437225,941.668396 446.515503,945.204895 
	C447.243927,947.593994 450.056854,950.784119 452.190643,950.989990 
	C455.910339,951.348694 459.834839,949.720215 463.640900,948.791199 
	C463.949768,948.715820 464.157684,947.615967 464.160553,946.990967 
	C464.195496,939.360840 464.183289,931.730408 464.183289,924.262390 
	C452.547974,920.883179 447.399902,923.438110 445.769318,933.836670 
z"/>
<path fill="#B4B5B6" opacity="1.000000" stroke="none" 
	d="
M905.534912,955.706421 
	C900.146973,955.942688 895.162292,956.408081 890.207458,956.190979 
	C884.770447,955.952759 880.817810,952.740295 880.158875,947.449036 
	C879.392212,941.292847 879.077637,934.855591 880.026733,928.767944 
	C881.177856,921.384460 886.835693,917.877136 894.604614,918.056091 
	C902.629395,918.240967 906.997192,921.725220 908.463440,929.566956 
	C909.033630,932.616394 908.913269,935.794922 909.149353,939.588867 
	C900.763794,939.588867 892.868896,939.588867 885.052429,939.588867 
	C884.333679,948.089294 887.184143,951.518738 894.824951,951.632568 
	C898.945007,951.694031 903.071716,951.306335 908.759705,951.051025 
	C907.464905,953.164307 906.708069,954.399536 905.534912,955.706421 
M903.092529,930.943726 
	C901.647888,924.276672 898.212158,921.878540 891.793701,923.057007 
	C886.674683,923.996948 884.140137,928.382385 885.053955,934.944031 
	C886.168701,934.994446 887.317261,935.086243 888.466187,935.091187 
	C892.456116,935.108521 896.450989,934.977905 900.434692,935.136353 
	C903.040833,935.240051 903.611572,934.045105 903.092529,930.943726 
z"/>
<path fill="#B4B5B6" opacity="1.000000" stroke="none" 
	d="
M1038.993164,949.767700 
	C1038.558960,942.533997 1037.388794,935.558594 1038.187256,928.816284 
	C1039.050415,921.527710 1044.991821,917.891663 1052.734375,918.057129 
	C1060.744385,918.228271 1065.419678,921.869812 1066.670898,929.529297 
	C1067.193604,932.729187 1066.757812,936.085693 1066.757812,939.794067 
	C1058.778931,939.794067 1051.004639,939.794067 1043.288208,939.794067 
	C1042.438477,947.981689 1045.366699,951.534607 1052.990967,951.635864 
	C1057.117920,951.690613 1061.250854,951.301819 1067.161377,951.031799 
	C1065.487061,953.267029 1064.654541,955.464966 1063.638550,955.553406 
	C1058.199219,956.026733 1052.604248,956.668335 1047.287720,955.829285 
	C1044.340088,955.364014 1041.830933,952.120117 1038.993164,949.767700 
M1053.489380,935.099060 
	C1056.085938,935.099060 1058.682495,935.099060 1061.255493,935.099060 
	C1061.474609,926.080078 1058.873047,922.795288 1052.105591,922.916687 
	C1045.533691,923.034485 1042.461548,927.062744 1043.167847,935.099060 
	C1046.253540,935.099060 1049.380493,935.099060 1053.489380,935.099060 
z"/>
<path fill="#B9BABB" opacity="1.000000" stroke="none" 
	d="
M552.322632,953.652954 
	C546.309082,943.406494 550.124268,935.529541 561.408264,934.167847 
	C564.995178,933.734924 568.599365,933.445618 572.082703,933.101807 
	C572.846252,924.741028 571.231995,922.880676 563.614502,923.082947 
	C559.969116,923.179810 556.331360,923.561768 550.951233,923.935425 
	C552.437012,921.801147 553.195007,919.518433 554.296082,919.338806 
	C558.860535,918.594238 563.548828,918.041016 568.153870,918.249878 
	C574.552795,918.540161 577.714539,922.067627 577.968872,928.545593 
	C578.183960,934.022888 578.046204,939.514160 578.058960,944.999207 
	C578.065430,947.793335 577.561401,950.666565 581.147705,952.102234 
	C581.923279,952.412720 581.983215,954.510864 582.332642,955.654297 
	C581.559875,956.075073 581.185059,956.424988 581.025513,956.345032 
	C574.633972,953.143555 568.306030,955.746643 561.895752,956.235718 
	C558.866821,956.466797 555.689758,954.757751 552.322632,953.652954 
M569.089844,950.773682 
	C576.146057,947.914001 570.902771,942.275452 572.971924,937.509338 
	C568.339905,937.894165 564.738892,938.110535 561.158508,938.511597 
	C556.624939,939.019348 554.956848,941.919373 555.324219,946.158997 
	C555.702454,950.523254 557.994751,952.227722 562.899536,951.843933 
	C564.706543,951.702576 566.489929,951.261108 569.089844,950.773682 
z"/>
<path fill="#B8B9BA" opacity="1.000000" stroke="none" 
	d="
M629.918457,943.151550 
	C630.221191,937.448364 629.910645,932.018555 631.077148,926.927185 
	C632.548279,920.506165 637.749695,917.884338 645.991394,918.059814 
	C653.770020,918.225525 658.904053,921.159424 659.802063,927.689819 
	C660.691528,934.157959 660.499634,940.915588 659.739136,947.424438 
	C659.149597,952.469849 655.221497,955.271790 650.060852,956.125366 
	C637.914185,958.134521 631.926453,954.440918 629.918457,943.151550 
M653.421631,926.328674 
	C650.043884,922.171936 645.584473,922.488953 641.113403,923.594177 
	C636.767456,924.668457 635.769409,928.412476 635.596130,932.136169 
	C635.397217,936.412903 635.591980,940.742188 636.031555,945.005737 
	C636.571106,950.238647 640.483765,951.558350 644.976807,951.739136 
	C650.628174,951.966492 654.200195,950.033875 654.539490,945.234863 
	C654.965332,939.212646 654.131958,933.101257 653.421631,926.328674 
z"/>
<path fill="#B8B9BA" opacity="1.000000" stroke="none" 
	d="
M749.943481,926.144226 
	C753.696655,919.392151 759.656982,916.888672 767.867554,918.289490 
	C774.910645,919.491089 778.163574,922.673340 779.244812,930.668335 
	C779.835938,935.039795 779.867249,939.628784 779.250366,943.992371 
	C777.934753,953.298218 773.549072,956.647888 763.951172,956.582397 
	C754.347107,956.516846 749.776917,953.021667 748.968689,943.714417 
	C748.476807,938.049561 749.493958,932.253784 749.943481,926.144226 
M771.155518,949.732483 
	C775.623840,943.232971 774.424255,936.092041 773.219116,929.082520 
	C772.337952,923.957581 768.292725,922.925171 763.771973,922.986389 
	C759.370789,923.045959 755.510254,924.403198 754.997314,929.250244 
	C754.445923,934.461426 754.580200,939.782654 754.859985,945.032166 
	C755.077637,949.114502 757.912659,951.372314 761.825317,951.457031 
	C764.708862,951.519531 767.612610,950.647461 771.155518,949.732483 
z"/>
<path fill="#B4B5B6" opacity="1.000000" stroke="none" 
	d="
M699.687500,948.831970 
	C699.687500,951.284668 699.687500,953.260681 699.687500,955.634216 
	C697.715027,955.729492 696.159729,955.804565 693.987183,955.909546 
	C693.987183,948.405151 694.078979,941.279358 693.965271,934.156860 
	C693.801575,923.906067 689.890015,921.211609 679.945251,924.080505 
	C676.955444,924.943054 675.655212,926.342468 675.748230,929.665588 
	C675.976746,937.823669 675.790405,945.993469 675.755005,954.158447 
	C675.753601,954.472900 675.587341,954.786743 675.361755,955.578735 
	C673.967041,955.694336 672.402100,955.824097 670.434082,955.987244 
	C670.434082,943.599976 670.434082,931.531433 670.434082,919.921692 
	C676.302490,919.303223 682.115723,918.312683 687.949036,918.174316 
	C694.783508,918.012146 698.249207,921.080688 698.905151,927.895813 
	C699.557861,934.677917 699.457642,941.532471 699.687500,948.831970 
z"/>
<path fill="#B9BABB" opacity="1.000000" stroke="none" 
	d="
M486.811401,947.850220 
	C490.288361,951.962952 499.621735,952.521729 502.644501,948.971130 
	C503.462250,948.010620 503.536041,946.218079 503.549072,944.803711 
	C503.627197,936.336365 503.587769,927.867981 503.587769,919.157593 
	C505.555450,919.157593 507.119904,919.157593 508.886902,919.157593 
	C508.886902,931.307129 508.886902,943.243347 508.886902,955.894836 
	C507.123932,955.644958 505.490387,955.402527 503.853455,955.185547 
	C502.749329,955.039246 501.598663,954.677917 500.542023,954.853516 
	C498.099609,955.259094 495.725128,956.264099 493.281433,956.436829 
	C485.330902,956.999023 481.455872,954.263123 480.877686,946.331848 
	C480.229156,937.436035 480.728638,928.456482 480.728638,919.122620 
	C481.990173,919.062927 483.568817,918.988281 485.312531,918.905762 
	C485.774963,928.630310 486.222198,938.035278 486.811401,947.850220 
z"/>
<path fill="#BDBEBE" opacity="1.000000" stroke="none" 
	d="
M1098.251221,926.080017 
	C1094.105103,922.529785 1086.614380,922.137817 1082.841797,925.305969 
	C1081.836426,926.150208 1081.451050,928.179199 1081.428833,929.673950 
	C1081.300415,938.285706 1081.366211,946.900391 1081.366211,955.689453 
	C1079.395630,955.689453 1077.945068,955.689453 1076.203369,955.689453 
	C1076.203369,943.528137 1076.203369,931.473450 1076.203369,919.966003 
	C1082.082764,919.324036 1087.734375,918.343079 1093.409546,918.179260 
	C1100.519165,917.974121 1104.216309,921.148132 1104.704224,928.648682 
	C1105.283691,937.556885 1104.840576,946.531555 1104.840576,955.675659 
	C1103.340210,955.675659 1101.896484,955.675659 1100.590698,955.675659 
	C1099.874268,945.851074 1099.166504,936.145813 1098.251221,926.080017 
z"/>
<path fill="#BDBEBE" opacity="1.000000" stroke="none" 
	d="
M727.739563,931.016968 
	C727.739563,928.538208 727.739563,926.557495 727.739563,925.547546 
	C725.500000,923.621460 723.873169,922.222290 721.180542,919.906616 
	C724.399963,919.159119 725.771973,918.840637 727.467468,918.446960 
	C727.571533,917.095154 727.727234,915.649780 727.787170,914.200378 
	C728.220703,903.724243 731.489929,901.048523 741.860962,902.117310 
	C745.384216,902.480408 745.359619,904.157654 744.759399,906.659363 
	C733.091736,907.788818 732.564636,908.339111 733.512268,918.818115 
	C736.816406,918.818115 740.202576,918.818115 743.763733,918.818115 
	C743.763733,920.649902 743.763733,921.911865 743.763733,923.669250 
	C740.351135,923.669250 737.088806,923.669250 733.344360,923.669250 
	C733.344360,934.536255 733.344360,944.923767 733.344360,955.591553 
	C731.286377,955.591553 729.714111,955.591553 727.739563,955.591553 
	C727.739563,947.447693 727.739563,939.481384 727.739563,931.016968 
z"/>
<path fill="#BABBBB" opacity="1.000000" stroke="none" 
	d="
M949.765381,923.766724 
	C948.544067,922.487793 947.761658,921.225037 946.557495,919.281738 
	C949.303223,918.994263 950.737915,918.844055 952.611328,918.647888 
	C952.611328,915.120361 952.611328,911.707336 952.611328,907.836975 
	C954.587158,907.732483 956.132019,907.650818 958.094788,907.546997 
	C958.094788,911.396057 958.094788,914.846375 958.094788,918.700806 
	C962.054443,918.700806 965.634644,918.700806 969.634644,918.700806 
	C969.764954,920.439270 969.867065,921.801636 970.007690,923.677856 
	C966.032471,923.677856 962.435974,923.677856 958.618774,923.677856 
	C958.618774,931.877686 958.545776,939.598450 958.654541,947.316650 
	C958.698242,950.422485 960.830688,951.634827 963.670410,951.632385 
	C965.491455,951.630859 967.312317,951.358887 969.587585,951.170532 
	C969.864319,952.531311 970.136047,953.867126 970.370178,955.018311 
	C969.836365,955.477234 969.620361,955.824524 969.361328,955.860291 
	C967.223022,956.155457 965.078186,956.595886 962.932800,956.609802 
	C956.385132,956.652222 953.352600,953.980896 953.028748,947.409607 
	C952.701416,940.769165 952.980713,934.099243 952.674988,927.456970 
	C952.617004,926.197083 951.066223,925.005859 949.765381,923.766724 
z"/>
<path fill="#B8B9BA" opacity="1.000000" stroke="none" 
	d="
M915.564697,955.869141 
	C915.594788,954.374634 915.722534,952.740662 916.459290,951.456055 
	C919.182190,946.708618 924.317444,942.083679 924.332520,937.399231 
	C924.347534,932.722046 919.308899,928.029968 916.490845,923.341431 
	C915.733643,922.081665 914.994812,920.810791 914.229004,919.513611 
	C919.052368,917.310364 920.948914,920.351746 922.840698,923.645142 
	C924.577332,926.668518 926.502502,929.583618 928.693970,933.108215 
	C930.860046,929.749207 932.918640,926.798279 934.719055,923.697449 
	C936.544495,920.553467 938.209961,917.429138 943.360474,919.518372 
	C941.176575,922.976013 939.391907,926.715027 936.778198,929.737183 
	C932.225586,935.001160 932.368530,939.602295 936.832336,944.847046 
	C939.450928,947.923706 941.176575,951.760376 943.670959,955.858154 
	C933.085083,956.454712 934.351562,945.615723 928.321350,942.256592 
	C926.121826,945.739197 924.081848,949.566223 921.426025,952.903320 
	C920.232117,954.403564 917.807861,954.924683 915.564697,955.869141 
z"/>
<path fill="#BABBBB" opacity="1.000000" stroke="none" 
	d="
M596.367920,936.984558 
	C596.371582,938.646057 596.346924,939.811340 596.383240,940.974854 
	C596.718750,951.707458 596.721863,951.707336 607.891174,951.338562 
	C608.130859,952.630981 608.382629,953.988647 608.581787,955.062500 
	C604.654541,959.155029 592.946716,956.018127 591.953003,950.654724 
	C590.995300,945.485657 591.164917,940.097656 590.969849,934.801025 
	C590.841858,931.324890 590.945679,927.840088 590.945679,924.221313 
	C588.452148,923.457825 584.187988,924.632324 586.230469,919.269775 
	C587.414551,919.084167 588.953186,918.842957 590.854004,918.544983 
	C590.854004,915.079895 590.854004,911.635437 590.854004,908.268860 
	C594.909180,907.459717 594.909180,907.459717 597.019836,918.885498 
	C600.517151,918.885498 604.110229,918.885498 607.894226,918.885498 
	C607.894226,920.625610 607.894226,921.892212 607.894226,923.696960 
	C604.188538,923.696960 600.603149,923.696960 596.367859,923.696960 
	C596.367859,928.303040 596.367859,932.395264 596.367920,936.984558 
z"/>
<path fill="#B7B8B8" opacity="1.000000" stroke="none" 
	d="
M534.022461,956.535889 
	C522.671875,955.743408 519.874329,953.274719 518.523499,942.569458 
	C518.089783,939.132690 518.049805,935.553345 518.472839,932.118469 
	C519.829529,921.104187 524.981140,917.129944 536.101685,918.185303 
	C538.410278,918.404297 540.695801,918.866333 543.471313,919.289429 
	C543.374817,920.713196 543.282166,922.081177 543.189087,923.454346 
	C528.557434,922.344788 524.341675,922.655762 524.015747,935.776306 
	C523.664368,949.920837 525.106750,951.044189 542.915649,951.141724 
	C544.294006,953.853333 544.286255,955.786865 540.431641,955.994812 
	C538.436035,956.102478 536.446716,956.328552 534.022461,956.535889 
z"/>
<path fill="#BDBEBE" opacity="1.000000" stroke="none" 
	d="
M794.476562,950.675049 
	C794.394653,952.599548 794.312805,954.062378 794.221741,955.690552 
	C792.457275,955.690552 791.001526,955.690552 789.251587,955.690552 
	C789.251587,943.552856 789.251587,931.491089 789.251587,919.153320 
	C792.208435,918.663269 795.046753,918.036743 794.486572,923.054688 
	C798.993469,921.231628 803.050110,919.590759 807.645447,917.731934 
	C807.798401,919.867371 807.909973,921.425293 808.006653,922.774658 
	C807.614258,923.252930 807.456909,923.646973 807.200439,923.728333 
	C794.477722,927.762756 794.476746,927.759827 794.476746,940.741394 
	C794.476746,943.898743 794.476746,947.056030 794.476562,950.675049 
z"/>
<path fill="#B1B2B4" opacity="1.000000" stroke="none" 
	d="
M620.560425,920.893066 
	C620.576355,932.593079 620.576355,943.873352 620.576355,955.562927 
	C618.682678,955.713684 617.131165,955.837280 615.243164,955.987610 
	C615.243164,943.586548 615.243164,931.511353 615.243164,918.444763 
	C617.129944,919.166748 618.837219,919.820068 620.560425,920.893066 
z"/>
<path fill="#B1B2B4" opacity="1.000000" stroke="none" 
	d="
M619.467407,904.141602 
	C620.151855,906.081543 620.433044,907.914246 620.787781,910.226562 
	C618.602295,910.323425 617.064880,910.391541 615.222778,910.473145 
	C615.222778,908.237427 615.222778,906.373047 615.222778,904.034363 
	C616.562683,904.034363 617.813416,904.034363 619.467407,904.141602 
z"/>
<path fill="#0B1627" opacity="1.000000" stroke="none" 
	d="
M664.745789,697.831177 
	C668.825378,684.889709 675.510010,674.870300 689.260864,671.583740 
	C704.985901,667.825317 720.855652,673.664978 728.665466,686.284180 
	C729.980286,688.408630 730.823364,691.202393 730.840271,693.694031 
	C731.001160,717.327698 731.010864,740.963440 730.831360,764.596863 
	C730.811340,767.231384 729.889038,770.204651 728.460571,772.426147 
	C720.129822,785.381531 707.545654,789.182983 692.991211,787.902100 
	C679.753723,786.737000 671.212585,778.878784 666.919861,766.957703 
	C664.080505,759.072815 662.176941,750.616882 661.404785,742.273132 
	C660.038025,727.504272 660.435913,712.671387 664.745789,697.831177 
z"/>
<path fill="#0C1627" opacity="1.000000" stroke="none" 
	d="
M1162.005859,710.000488 
	C1156.860596,710.000488 1152.214233,710.000488 1147.579102,710.000488 
	C1146.869751,681.900452 1172.648438,663.083191 1198.532715,672.592896 
	C1211.390381,677.316711 1216.443604,687.725830 1217.896240,700.439758 
	C1218.231323,703.373230 1217.945679,706.377686 1217.945679,710.000488 
	C1199.353516,710.000488 1180.929077,710.000488 1162.005859,710.000488 
z"/>
<path fill="#0E192A" opacity="1.000000" stroke="none" 
	d="
M445.819550,933.389832 
	C447.399902,923.438110 452.547974,920.883179 464.183289,924.262390 
	C464.183289,931.730408 464.195496,939.360840 464.160553,946.990967 
	C464.157684,947.615967 463.949768,948.715820 463.640900,948.791199 
	C459.834839,949.720215 455.910339,951.348694 452.190643,950.989990 
	C450.056854,950.784119 447.243927,947.593994 446.515503,945.204895 
	C445.437225,941.668396 445.939789,937.649963 445.819550,933.389832 
z"/>
<path fill="#0E192A" opacity="1.000000" stroke="none" 
	d="
M903.140747,931.385376 
	C903.611572,934.045105 903.040833,935.240051 900.434692,935.136353 
	C896.450989,934.977905 892.456116,935.108521 888.466187,935.091187 
	C887.317261,935.086243 886.168701,934.994446 885.053955,934.944031 
	C884.140137,928.382385 886.674683,923.996948 891.793701,923.057007 
	C898.212158,921.878540 901.647888,924.276672 903.140747,931.385376 
z"/>
<path fill="#0E192A" opacity="1.000000" stroke="none" 
	d="
M1052.998291,935.099060 
	C1049.380493,935.099060 1046.253540,935.099060 1043.167847,935.099060 
	C1042.461548,927.062744 1045.533691,923.034485 1052.105591,922.916687 
	C1058.873047,922.795288 1061.474609,926.080078 1061.255493,935.099060 
	C1058.682495,935.099060 1056.085938,935.099060 1052.998291,935.099060 
z"/>
<path fill="#141F2F" opacity="1.000000" stroke="none" 
	d="
M568.687012,950.865112 
	C566.489929,951.261108 564.706543,951.702576 562.899536,951.843933 
	C557.994751,952.227722 555.702454,950.523254 555.324219,946.158997 
	C554.956848,941.919373 556.624939,939.019348 561.158508,938.511597 
	C564.738892,938.110535 568.339905,937.894165 572.971924,937.509338 
	C570.902771,942.275452 576.146057,947.914001 568.687012,950.865112 
z"/>
<path fill="#0E192A" opacity="1.000000" stroke="none" 
	d="
M653.631836,926.678528 
	C654.131958,933.101257 654.965332,939.212646 654.539490,945.234863 
	C654.200195,950.033875 650.628174,951.966492 644.976807,951.739136 
	C640.483765,951.558350 636.571106,950.238647 636.031555,945.005737 
	C635.591980,940.742188 635.397217,936.412903 635.596130,932.136169 
	C635.769409,928.412476 636.767456,924.668457 641.113403,923.594177 
	C645.584473,922.488953 650.043884,922.171936 653.631836,926.678528 
z"/>
<path fill="#0E192A" opacity="1.000000" stroke="none" 
	d="
M770.831421,949.962097 
	C767.612610,950.647461 764.708862,951.519531 761.825317,951.457031 
	C757.912659,951.372314 755.077637,949.114502 754.859985,945.032166 
	C754.580200,939.782654 754.445923,934.461426 754.997314,929.250244 
	C755.510254,924.403198 759.370789,923.045959 763.771973,922.986389 
	C768.292725,922.925171 772.337952,923.957581 773.219116,929.082520 
	C774.424255,936.092041 775.623840,943.232971 770.831421,949.962097 
z"/>
</svg>