<svg version="1.1" id="Layer_1" xmlns="http://www.w3.org/2000/svg" xmlns:xlink="http://www.w3.org/1999/xlink" x="0px" y="0px"
	 width="100%" viewBox="0 0 897 615" enable-background="new 0 0 897 615" xml:space="preserve">
<path fill="#000000" opacity="1.000000" stroke="none" 
	d="
M645.000000,616.000000 
	C430.000000,616.000000 215.500000,616.000000 1.000000,616.000000 
	C1.000000,411.000000 1.000000,206.000000 1.000000,1.000000 
	C300.000000,1.000000 599.000000,1.000000 898.000000,1.000000 
	C898.000000,206.000000 898.000000,411.000000 898.000000,616.000000 
	C813.833313,616.000000 729.666687,616.000000 645.000000,616.000000 
M309.048340,183.999329 
	C305.322113,185.010529 301.424500,185.620819 297.908417,187.123688 
	C292.142853,189.588104 286.603180,192.589554 281.014191,195.454193 
	C278.943420,196.515594 277.002289,197.829941 274.159943,199.046967 
	C267.904541,200.199738 261.145630,199.484787 256.013000,204.659424 
	C254.737244,205.945648 252.419525,206.480148 250.489334,206.789200 
	C239.010269,208.627121 227.504364,210.297379 215.556564,211.636734 
	C214.699188,212.068726 213.841812,212.500717 212.188293,212.954788 
	C211.126465,212.972336 210.064621,212.989883 208.409119,212.568542 
	C206.017929,212.864471 203.173767,212.436096 201.321808,213.594269 
	C196.095383,216.862808 191.387634,220.947784 186.266739,224.401459 
	C180.598145,228.224503 177.966995,233.631104 177.005615,240.134079 
	C176.594238,242.916641 176.635132,245.923584 175.538498,248.418976 
	C171.605957,257.367432 173.684677,265.236511 177.933365,273.562683 
	C179.794403,277.209747 179.806198,282.728577 178.614944,286.799713 
	C176.535812,293.905365 174.393265,300.682098 177.023224,308.015900 
	C177.023224,308.015900 177.028122,308.031708 176.234375,308.026459 
	C174.852386,309.357269 172.433990,310.563538 172.256622,312.039185 
	C171.106049,321.611328 171.226791,331.218384 174.049438,340.546936 
	C178.089722,353.899658 181.625992,367.148682 180.281708,381.483093 
	C179.686401,387.830872 181.492615,394.643585 183.352890,400.905304 
	C184.811569,405.815247 188.473068,409.723572 194.582825,411.355499 
	C199.757401,417.274902 207.488312,417.164551 214.141541,418.662811 
	C221.800430,420.387482 229.997604,419.721863 238.221863,420.753845 
	C239.791962,421.521271 241.285461,422.621124 242.944321,423.003387 
	C255.888168,425.986450 268.797180,429.196838 281.855255,431.578857 
	C289.376801,432.950897 295.464813,436.427124 301.470123,440.746857 
	C304.191437,442.704315 307.648926,443.638367 310.922333,445.758087 
	C310.886536,446.491882 310.850739,447.225647 310.610748,448.220123 
	C310.525055,448.594238 310.658264,448.853821 311.907532,449.289154 
	C323.683228,449.310791 335.459076,449.378784 347.234589,449.342377 
	C362.153473,449.296265 377.072113,449.165253 392.403564,449.545410 
	C393.325500,450.047089 394.247406,450.548767 395.463837,451.625275 
	C412.462524,468.705444 429.443726,485.803070 446.471008,502.854706 
	C451.388855,507.779633 451.577332,507.680542 456.636017,502.616302 
	C471.156586,488.079742 485.752014,473.617493 500.207397,459.016510 
	C502.919891,456.276733 505.120880,453.030579 508.239380,450.080658 
	C509.499573,449.713135 510.759766,449.345612 512.925354,449.225769 
	C538.011719,449.274994 563.098572,449.260132 588.183899,449.444702 
	C591.820435,449.471466 592.750793,448.064148 592.680359,444.765442 
	C592.556519,438.956757 592.729675,433.141754 592.955688,426.669617 
	C592.987610,426.444183 593.019592,426.218719 593.639709,425.613403 
	C594.758728,422.980652 596.636230,420.409790 596.857056,417.703735 
	C597.571106,408.952148 597.299805,400.115112 598.128540,391.379333 
	C598.870911,383.553375 602.622803,376.841766 608.374817,371.438721 
	C618.618591,361.816345 632.050232,360.072021 644.901672,357.006195 
	C658.766785,353.698547 673.805359,354.397003 685.820251,344.789185 
	C686.748108,344.047241 688.349365,344.147430 690.478088,343.749115 
	C693.131042,343.755402 695.803833,343.975128 698.433350,343.730133 
	C708.478760,342.794189 708.473572,342.738312 709.945740,332.965973 
	C716.439392,329.286133 719.043030,323.220032 719.912415,316.247894 
	C720.362793,312.635864 718.959045,308.395813 724.047668,306.819275 
	C724.457825,306.692230 724.833618,305.680573 724.822205,305.087769 
	C724.723267,299.952789 725.553101,294.525146 724.173645,289.742004 
	C720.291748,276.281555 716.404053,262.594391 708.622375,250.808716 
	C704.863159,245.115250 698.871826,240.895508 693.524231,235.513687 
	C692.665405,234.984512 691.806519,234.455338 690.943176,233.176147 
	C690.455627,227.595169 685.492615,226.650986 681.765930,225.420181 
	C672.653198,222.410553 663.205872,220.735062 654.791077,215.445068 
	C648.365784,211.405853 641.032959,208.833908 632.965271,209.207626 
	C627.576416,204.448120 622.668457,198.921310 616.657471,195.154739 
	C611.148132,191.702499 606.385803,188.077316 603.224854,182.398392 
	C601.014160,178.426743 597.757446,176.257019 592.793091,176.118088 
	C592.771362,175.293457 592.737488,174.468948 592.729736,173.644196 
	C592.665527,166.793976 592.666321,166.851074 585.587219,166.771378 
	C578.359192,166.690002 571.132568,166.480865 563.972900,165.609879 
	C564.704834,164.273727 565.436829,162.937561 566.284790,161.389633 
	C562.434326,159.998947 559.505005,158.329849 560.046021,153.512939 
	C560.939148,145.559814 557.229248,140.375092 550.064880,137.087357 
	C545.309326,134.904999 541.102600,131.558304 536.491882,129.020432 
	C530.538147,125.743309 526.122498,119.960426 518.302673,119.587723 
	C513.358337,119.352081 508.535278,116.805573 503.632874,115.381416 
	C499.577209,114.203239 495.462708,113.225372 491.416992,112.015930 
	C488.832581,111.243347 485.978180,110.699280 483.858368,109.190681 
	C479.734833,106.256126 474.998291,105.963707 471.933533,109.983627 
	C469.071625,113.737457 465.749786,113.176399 462.112885,112.469116 
	C460.013885,112.060913 457.935516,111.546608 455.165314,110.969330 
	C453.689423,110.346230 452.213531,109.723129 450.753967,109.106918 
	C449.835297,109.976753 449.101074,110.645844 448.395508,111.343857 
	C433.993225,125.590820 419.594208,139.841095 404.340851,154.049683 
	C398.966461,154.710205 393.605499,155.760635 388.214752,155.946106 
	C378.461090,156.281693 377.501556,156.781540 374.094391,166.212448 
	C371.787994,166.371185 369.482635,166.650482 367.175079,166.669586 
	C348.485504,166.824448 329.795532,166.930496 310.586243,167.689651 
	C310.361115,173.127487 310.135986,178.565323 309.048340,183.999329 
z"/>
<path fill="#0B1728" opacity="1.000000" stroke="none" 
	d="
M593.051575,425.993256 
	C593.019592,426.218719 592.987610,426.444183 592.435974,426.840942 
	C590.095154,426.900452 588.274170,426.692993 586.452942,426.691193 
	C563.628601,426.668976 540.804260,426.676544 517.979919,426.676453 
	C516.184998,426.676453 514.390015,426.676453 512.019958,426.676453 
	C512.019958,434.410645 512.019958,441.694366 512.019958,448.978088 
	C510.759766,449.345612 509.499573,449.713135 507.670837,449.773834 
	C500.418945,442.737579 493.833252,435.905853 486.975159,429.359406 
	C485.487885,427.939728 483.030121,426.810547 481.007202,426.790833 
	C461.533997,426.600861 442.057617,426.611481 422.584076,426.782135 
	C420.699768,426.798645 418.393921,427.829132 417.023285,429.154022 
	C409.610046,436.319794 402.429840,443.726654 395.169312,451.050415 
	C394.247406,450.548767 393.325500,450.047089 392.168518,448.833862 
	C391.933502,441.057373 391.933502,433.992462 391.933502,426.941528 
	C364.576630,426.941528 338.028290,426.941528 311.222076,426.941528 
	C311.079437,429.799927 310.948883,432.415741 310.494995,434.867340 
	C309.770538,433.328522 309.554413,431.860779 308.920776,430.603363 
	C308.154602,429.082825 307.341064,427.082001 306.003479,426.460083 
	C303.346558,425.224670 300.355988,424.559326 297.434540,424.064148 
	C277.749268,420.727600 257.905884,419.616455 237.960983,420.094391 
	C229.997604,419.721863 221.800430,420.387482 214.141541,418.662811 
	C207.488312,417.164551 199.757401,417.274902 194.269501,410.777100 
	C192.275024,404.519928 190.572388,398.847351 188.931458,393.157013 
	C188.615173,392.060181 188.211624,390.834381 188.403961,389.768280 
	C191.101517,374.815338 186.372574,360.902588 182.520096,346.863892 
	C180.685684,340.179138 178.194855,333.592224 177.193466,326.785583 
	C176.292130,320.658783 177.019257,314.292419 177.028107,308.031708 
	C177.028122,308.031708 177.023224,308.015900 177.482880,308.018982 
	C180.268158,308.016052 182.593781,308.008881 184.919418,308.004303 
	C193.013794,307.988342 193.003235,307.988678 193.000031,299.855957 
	C192.990738,276.267517 193.133881,252.677521 192.879181,229.091766 
	C192.820724,223.679321 194.549103,220.389984 199.544296,218.322540 
	C202.862061,216.949341 205.861084,214.806015 209.002792,213.007416 
	C210.064621,212.989883 211.126465,212.972336 212.914948,212.951569 
	C214.430222,212.640213 215.218857,212.332077 216.007477,212.023941 
	C227.504364,210.297379 239.010269,208.627121 250.489334,206.789200 
	C252.419525,206.480148 254.737244,205.945648 256.013000,204.659424 
	C261.145630,199.484787 267.904541,200.199738 274.871857,199.210724 
	C282.591492,198.252640 289.565491,196.653198 296.617279,196.154877 
	C302.635925,195.729538 307.655090,194.338608 311.439880,189.087158 
	C338.452667,189.180466 365.003448,189.180466 391.593872,189.180466 
	C391.593872,181.257874 391.593872,174.026138 391.593872,165.988541 
	C385.853424,165.988541 380.409180,165.988541 374.964935,165.988541 
	C377.501556,156.781540 378.461090,156.281693 388.214752,155.946106 
	C393.605499,155.760635 398.966461,154.710205 404.623962,154.377380 
	C401.530792,157.850769 398.154541,160.996475 394.132233,164.744095 
	C402.466003,172.844467 410.137939,180.443573 418.027222,187.809891 
	C419.152771,188.860779 421.329498,189.163055 423.022736,189.171051 
	C442.316986,189.262283 461.611847,189.244354 480.906433,189.197693 
	C482.342407,189.194214 484.275146,189.259109 485.135284,188.424652 
	C493.164246,180.635345 501.009033,172.656204 508.906555,164.732635 
	C507.258972,163.050522 506.102112,161.858932 504.933990,160.678467 
	C488.572845,144.144775 472.210144,127.612595 455.847839,111.080063 
	C457.935516,111.546608 460.013885,112.060913 462.112885,112.469116 
	C465.749786,113.176399 469.071625,113.737457 471.933533,109.983627 
	C474.998291,105.963707 479.734833,106.256126 483.858368,109.190681 
	C485.978180,110.699280 488.832581,111.243347 491.416992,112.015930 
	C495.462708,113.225372 499.577209,114.203239 503.632874,115.381416 
	C508.535278,116.805573 513.358337,119.352081 518.302673,119.587723 
	C526.122498,119.960426 530.538147,125.743309 536.491882,129.020432 
	C541.102600,131.558304 545.309326,134.904999 550.064880,137.087357 
	C557.229248,140.375092 560.939148,145.559814 560.046021,153.512939 
	C559.505005,158.329849 562.434326,159.998947 566.284790,161.389633 
	C565.436829,162.937561 564.704834,164.273727 563.477417,165.991013 
	C546.089478,166.372147 529.197144,166.372147 512.367188,166.372147 
	C512.367188,174.358170 512.367188,181.612747 512.367188,189.237793 
	C533.114380,189.237793 553.555664,189.267090 573.996826,189.220337 
	C580.308289,189.205902 586.619141,188.984238 593.022339,189.199448 
	C595.671204,194.348923 599.470764,197.108597 604.984009,198.203506 
	C609.888611,199.177536 615.447998,200.175217 619.126404,203.138596 
	C623.455322,206.625946 627.839417,208.796112 633.046082,209.889740 
	C641.032959,208.833908 648.365784,211.405853 654.791077,215.445068 
	C663.205872,220.735062 672.653198,222.410553 681.765930,225.420181 
	C685.492615,226.650986 690.455627,227.595169 690.484863,233.595581 
	C683.433167,234.014999 676.839844,234.014999 669.742065,234.014999 
	C669.742065,241.388031 669.742065,248.134048 669.742065,255.398529 
	C665.480042,255.398529 661.728210,255.398529 657.714294,255.398529 
	C657.714294,261.504822 657.714294,267.065491 657.714294,273.231598 
	C661.912720,273.231598 665.797119,273.231598 669.929382,273.231598 
	C669.929382,289.131683 669.937988,304.426727 669.926331,319.721741 
	C669.918945,329.405487 673.361084,337.152466 681.834106,341.903625 
	C680.277893,341.962219 679.145264,341.988342 677.651855,342.075317 
	C674.191101,343.753662 671.091003,345.371155 667.554749,346.990784 
	C665.083069,347.000885 663.047546,347.008850 660.617065,346.986206 
	C658.586121,346.779327 656.896240,346.245758 655.322998,346.483673 
	C643.223755,348.313141 631.155090,350.343536 619.061584,352.212067 
	C604.243896,354.501465 593.189331,361.934509 586.682983,375.650940 
	C583.614319,382.120209 583.222168,388.642487 584.177856,395.907440 
	C585.473633,405.758057 587.809204,415.068268 592.032410,424.287354 
	C592.408691,425.047180 592.730103,425.520233 593.051575,425.993256 
M378.989655,333.449310 
	C378.989655,336.216675 378.989655,338.984039 378.989655,341.631165 
	C387.731964,341.631165 395.782104,341.631165 404.170258,341.631165 
	C404.170258,317.150055 404.170258,293.084686 404.170258,267.837311 
	C405.417114,269.738373 406.047211,270.631409 406.608978,271.565521 
	C420.050171,293.914764 433.460999,316.282410 446.974335,338.587921 
	C447.818481,339.981293 449.417175,341.823395 450.730011,341.877594 
	C458.328552,342.191345 465.946655,342.030823 473.595520,342.030823 
	C473.595520,302.790405 473.595520,264.092438 473.595520,225.465805 
	C465.269501,225.465805 457.353363,225.465805 448.881592,225.465805 
	C448.881592,250.124069 448.881592,274.441772 448.881592,299.893402 
	C447.659149,298.019867 447.103088,297.224854 446.604614,296.395264 
	C432.992462,273.742920 419.410370,251.072464 405.719879,228.467621 
	C404.886353,227.091400 403.238159,225.334732 401.905731,225.279373 
	C394.463226,224.970261 387.001221,225.130753 378.989655,225.130753 
	C378.989655,261.237793 378.989655,296.848877 378.989655,333.449310 
M194.268341,334.391968 
	C194.268341,336.831116 194.268341,339.270264 194.268341,341.711426 
	C220.880325,341.711426 246.777115,341.711426 272.618958,341.711426 
	C272.618958,334.973236 272.618958,328.585876 272.618958,321.852844 
	C254.963684,321.852844 237.689880,321.852844 220.185730,321.852844 
	C220.185730,311.791473 220.185730,302.090668 220.185730,291.861633 
	C235.241028,291.861633 249.970078,291.861633 264.707153,291.861633 
	C264.707153,285.081177 264.707153,278.835266 264.707153,272.018005 
	C249.691040,272.018005 234.965347,272.018005 220.203369,272.018005 
	C220.203369,263.045502 220.203369,254.653427 220.203369,245.689453 
	C237.938400,245.689453 255.329529,245.689453 272.591949,245.689453 
	C272.591949,238.537125 272.591949,231.970428 272.591949,225.371521 
	C246.437134,225.371521 220.677948,225.371521 194.267685,225.371521 
	C194.267685,261.558075 194.267685,297.489288 194.268341,334.391968 
M294.496368,336.025848 
	C300.523529,341.629364 307.716949,344.010071 315.872162,343.970581 
	C324.292572,343.929810 331.031372,340.280670 336.971008,333.576904 
	C337.570221,336.934845 337.997467,339.329254 338.409943,341.640839 
	C345.738098,341.640839 352.789398,341.640839 359.750793,341.640839 
	C359.750793,300.634766 359.750793,260.037354 359.750793,219.327301 
	C351.743195,219.327301 344.020020,219.327301 335.881775,219.327301 
	C335.881775,233.712311 335.881775,247.777191 335.881775,261.762604 
	C331.764069,259.421356 328.173737,256.527100 324.075958,255.201172 
	C308.304565,250.097992 292.625244,258.056671 285.903931,273.881927 
	C281.395844,284.496124 281.325256,295.595978 282.007355,306.753723 
	C282.674286,317.663635 286.110291,327.555511 294.496368,336.025848 
M489.997498,303.328156 
	C490.198669,321.852020 501.838898,337.158295 519.454041,342.061981 
	C538.436523,347.346313 558.383057,341.448151 566.802612,327.903290 
	C563.149109,323.693542 559.451599,319.433105 555.754944,315.173676 
	C545.182129,324.255432 534.914246,326.725739 525.585815,322.395203 
	C519.215637,319.437988 515.807373,314.341370 514.747925,306.865295 
	C533.005493,306.865295 550.762634,306.865295 569.012939,306.865295 
	C569.012939,304.776398 569.083374,303.151276 569.000000,301.534088 
	C568.726318,296.226685 568.749146,290.873444 568.024109,285.625427 
	C565.677612,268.641754 555.396301,257.280945 538.425110,254.529358 
	C522.367371,251.925903 507.432098,255.605133 497.214844,271.345215 
	C491.105103,280.757507 489.501160,291.356262 489.997498,303.328156 
M590.621948,314.094177 
	C585.449768,323.230469 580.277527,332.366760 574.794189,342.052643 
	C580.260010,342.052643 584.844910,341.473511 589.224548,342.175201 
	C597.894531,343.564301 603.015747,340.381622 606.180908,332.215057 
	C608.332214,326.664307 611.867004,321.649750 615.145935,315.741882 
	C619.826477,324.122925 623.893311,331.548492 628.138428,338.870728 
	C628.878601,340.147339 630.339355,341.849792 631.518921,341.891296 
	C639.229431,342.162659 646.954224,342.030914 655.339111,342.030914 
	C654.427246,340.232208 653.958984,339.205597 653.403564,338.228516 
	C647.004456,326.972198 640.841431,315.570312 634.069275,304.542633 
	C631.062256,299.645996 631.243896,295.890747 634.210999,291.075836 
	C640.652283,280.623260 646.481140,269.792725 652.527344,259.097992 
	C653.118835,258.051819 653.480591,256.875793 654.153687,255.272522 
	C646.610901,255.272522 639.788086,255.422104 632.977234,255.202301 
	C630.066467,255.108368 628.432617,256.128357 627.107422,258.637238 
	C623.351929,265.746735 619.394226,272.749481 615.134766,280.487183 
	C610.861755,272.650635 607.052612,265.513519 603.060059,258.480438 
	C602.333618,257.200867 600.888428,255.477631 599.723206,255.436661 
	C591.993958,255.165039 584.250671,255.296036 575.645752,255.296036 
	C582.025085,266.512482 587.381592,277.223633 593.977478,287.107727 
	C599.016357,294.658569 600.209778,301.160370 594.013672,308.308044 
	C592.732361,309.786163 591.990967,311.732330 590.621948,314.094177 
M509.647125,178.564819 
	C509.647125,175.659958 509.647125,172.755096 509.647125,170.270706 
	C503.045685,176.578079 496.649445,182.689377 490.190033,188.861053 
	C496.690460,188.861053 503.065033,188.861053 509.652893,188.861053 
	C509.652893,185.478867 509.652893,182.491180 509.647125,178.564819 
M496.731171,426.643555 
	C494.553558,426.643555 492.375946,426.643555 490.880676,426.643555 
	C497.223907,432.871277 503.468384,439.002045 509.346954,444.773560 
	C509.346954,439.452515 509.346954,433.265503 509.346954,426.643677 
	C505.230713,426.643677 501.444183,426.643677 496.731171,426.643555 
M411.766907,426.678070 
	C406.011353,426.678070 400.255798,426.678070 394.404358,426.678070 
	C394.404358,433.596283 394.404358,439.926758 394.404358,446.652893 
	C400.906586,440.285309 407.043579,434.292389 413.118652,428.237396 
	C413.287140,428.069458 412.791962,427.235687 411.766907,426.678070 
M396.090942,170.404877 
	C395.439606,170.527832 394.220581,170.642014 394.218506,170.775009 
	C394.124512,176.853699 394.136932,182.934036 394.136932,188.775620 
	C401.102905,188.775620 407.411591,188.775620 414.930817,188.775620 
	C408.243744,182.261444 402.417419,176.585800 396.090942,170.404877 
M381.735901,380.203522 
	C381.815033,379.638031 381.894135,379.072571 382.178101,377.042938 
	C385.049438,383.593231 387.172546,388.908142 389.739319,393.999359 
	C390.490967,395.490234 392.503998,396.345184 394.347839,397.818359 
	C394.347839,389.127808 394.347839,381.980530 394.347839,374.833252 
	C393.862000,374.848114 393.376129,374.862976 392.890289,374.877869 
	C392.890289,380.980103 392.890289,387.082336 392.890289,393.184570 
	C389.582764,388.236633 387.147705,383.233154 385.245270,378.034760 
	C384.047882,374.762787 382.263641,374.079803 379.628296,375.003082 
	C379.628296,382.467041 379.628296,389.673553 379.628296,396.880035 
	C380.328278,396.892975 381.028290,396.905884 381.728271,396.918823 
	C381.728271,391.634674 381.728271,386.350555 381.735901,380.203522 
M204.701950,386.428558 
	C204.556549,385.676361 204.454498,384.283112 204.259125,384.269928 
	C201.993530,384.116699 199.713837,384.171997 197.280167,384.171997 
	C197.280167,381.519226 197.280167,379.450226 197.280167,377.188049 
	C200.978928,376.973145 204.435425,376.772339 207.891907,376.571533 
	C207.844604,376.079498 207.797302,375.587494 207.750000,375.095459 
	C203.303009,375.095459 198.856018,375.095459 194.571289,375.095459 
	C194.571289,382.583282 194.571289,389.645844 194.571289,396.419128 
	C199.303696,396.419128 203.596130,396.419128 207.888565,396.419128 
	C207.916489,395.932312 207.944412,395.445496 207.972321,394.958649 
	C204.440872,394.704651 200.909409,394.450653 197.256531,394.187897 
	C197.256531,391.569733 197.256531,389.302917 197.256531,386.495453 
	C199.604004,386.495453 201.724167,386.495453 204.701950,386.428558 
M457.456512,373.958618 
	C450.785126,374.650269 448.636353,376.521332 448.076477,382.613739 
	C447.850189,385.075897 447.854401,387.644257 448.295288,390.065674 
	C449.353912,395.879242 452.922333,397.763977 459.921539,397.069092 
	C465.696991,396.495667 463.505371,392.237885 463.863129,389.166656 
	C463.991791,388.062073 463.738892,386.913025 463.620880,385.221985 
	C461.447815,385.416290 459.590912,385.582306 458.857941,385.647827 
	C459.841370,388.788574 460.647034,391.361542 461.624054,394.481781 
	C456.596405,394.938568 452.386475,395.710449 451.361969,390.911133 
	C450.590881,387.299042 450.491058,383.039246 451.685181,379.624756 
	C453.714447,373.822205 459.906158,378.282898 464.931122,375.754761 
	C461.948303,374.969116 460.118408,374.487122 457.456512,373.958618 
M223.720108,376.035706 
	C223.246078,375.255493 222.772049,374.475311 222.298035,373.695099 
	C221.976120,373.808289 221.654205,373.921448 221.332291,374.034607 
	C221.121750,376.211792 220.911194,378.388947 220.700638,380.566132 
	C220.439438,380.180176 220.178253,379.794220 219.917053,379.408264 
	C217.249298,380.545532 213.018478,381.057220 212.257874,382.957764 
	C210.912598,386.319305 210.512665,390.989838 211.820099,394.275818 
	C214.084137,399.966064 219.513504,395.189606 223.737167,396.835419 
	C223.737167,389.820587 223.737167,383.381989 223.720108,376.035706 
M297.856995,380.275970 
	C293.097107,382.104553 291.315857,385.272583 292.119141,390.686462 
	C292.646088,394.237610 294.110474,396.888245 298.277893,397.067078 
	C302.955719,397.267822 305.516296,395.215485 305.964172,390.125153 
	C306.424286,384.895813 304.591064,379.958466 297.856995,380.275970 
M356.318481,384.496246 
	C353.417877,379.523743 346.747681,378.286011 344.876770,382.815186 
	C343.463318,386.236938 344.003052,390.790222 344.795013,394.607208 
	C345.043793,395.806091 348.961853,396.919769 351.145630,396.823883 
	C352.844635,396.749268 355.343597,395.060364 355.908844,393.512573 
	C356.821472,391.013519 356.436340,388.040527 356.318481,384.496246 
M263.953369,387.008362 
	C262.842865,387.319153 261.302155,387.282776 260.712280,388.013702 
	C259.519623,389.491516 257.943451,391.541748 258.207550,393.064148 
	C258.469269,394.572601 260.680573,396.630249 262.249390,396.837494 
	C265.396637,397.253235 268.688782,396.572113 271.134827,396.399292 
	C270.757294,393.481110 270.149902,390.737732 270.093842,387.983124 
	C269.932312,380.046753 266.618011,378.174713 257.724640,382.693207 
	C261.052429,382.693207 263.104584,382.418610 265.022522,382.806854 
	C266.009155,383.006622 266.756653,384.387634 267.612213,385.234863 
	C266.692810,385.811981 265.773438,386.389130 263.953369,387.008362 
M487.693420,383.286102 
	C493.709381,382.425110 494.050812,382.685791 494.210358,388.469849 
	C494.265198,390.457092 494.089111,392.463562 494.313263,394.427612 
	C494.419983,395.362762 495.217224,396.219086 496.247345,398.115967 
	C498.938843,382.662109 496.727692,379.922974 484.437378,381.459290 
	C484.437378,386.603119 484.437378,391.711121 484.437378,396.819092 
	C484.983826,396.854004 485.530304,396.888947 486.076752,396.923859 
	C486.404449,392.600861 486.732147,388.277893 487.693420,383.286102 
M401.802368,395.957825 
	C405.188904,397.658844 408.472778,397.493469 412.544586,395.841797 
	C408.623718,393.629730 402.526581,397.300873 402.057648,389.788239 
	C405.547058,389.788239 408.637909,389.788239 411.656921,389.788239 
	C412.530975,383.388672 410.889252,380.532745 406.471771,380.199890 
	C402.240936,379.881134 399.216400,383.062866 399.319031,388.414703 
	C399.364319,390.776031 400.505219,393.116302 401.802368,395.957825 
M471.047699,389.958130 
	C473.974854,389.958130 476.901978,389.958130 479.891693,389.958130 
	C480.219177,385.688293 480.882568,381.652344 476.163483,380.923218 
	C473.834656,380.563446 470.535004,381.480774 468.853607,383.068604 
	C466.084503,385.683685 466.662170,393.420288 469.360962,395.512726 
	C472.622375,398.041321 476.214020,397.397156 479.675781,395.518494 
	C477.982727,394.884216 476.279907,394.924347 474.579681,394.875275 
	C471.663788,394.791107 469.743378,393.709167 471.047699,389.958130 
M341.005737,373.587494 
	C337.207214,373.313019 331.741272,379.142426 332.448608,382.513336 
	C333.184937,386.022278 333.595123,389.598450 334.232086,393.130066 
	C334.471100,394.455078 334.946899,395.737396 335.314728,397.039185 
	C335.807251,396.959351 336.299774,396.879517 336.792297,396.799652 
	C336.792297,392.303894 336.792297,387.808136 336.792297,383.601135 
	C338.721344,383.037048 339.993500,382.665070 342.737823,381.862579 
	C338.809570,380.755493 335.367035,380.502472 336.877991,377.730133 
	C339.138336,375.963562 340.409790,374.969849 341.005737,373.587494 
M421.735565,392.030060 
	C423.064697,393.784149 424.393829,395.538239 425.722961,397.292328 
	C426.348114,397.018250 426.973297,396.744202 427.598450,396.470123 
	C422.293762,391.470337 422.083191,386.328003 427.278442,381.034454 
	C426.722076,380.869812 426.165710,380.705170 425.609344,380.540527 
	C424.025421,382.376678 422.441467,384.212830 420.839874,386.069427 
	C419.168030,384.157013 417.606079,382.370331 416.044159,380.583679 
	C415.451080,380.813965 414.857971,381.044281 414.264893,381.274567 
	C420.490021,386.377106 418.567841,391.576416 414.423676,396.802124 
	C415.018005,397.023254 415.612366,397.244385 416.206696,397.465485 
	C417.880005,395.495087 419.553284,393.524658 421.735565,392.030060 
M312.018036,388.608398 
	C311.820251,385.475616 311.657257,382.432007 316.273193,382.683136 
	C320.693878,382.923645 319.859619,386.212769 319.963989,388.902985 
	C320.065582,391.521820 319.986023,394.147705 319.986023,396.770477 
	C320.826569,396.724640 321.667114,396.678772 322.507660,396.632904 
	C322.020599,391.758698 322.516937,386.431488 320.579376,382.225494 
	C319.764374,380.456299 313.806396,381.056274 310.534912,380.625183 
	C310.534912,386.711273 310.534912,391.738953 310.534912,396.766632 
	C311.029266,396.748810 311.523651,396.730988 312.018005,396.713165 
	C312.018005,394.321014 312.018005,391.928894 312.018036,388.608398 
M438.060333,396.908630 
	C438.088867,396.289642 438.117401,395.670654 438.145966,395.051666 
	C432.788269,395.430786 433.749939,391.509094 433.625336,388.365479 
	C433.561310,386.750244 433.614136,385.130371 433.614136,383.597595 
	C435.646027,383.051208 437.207031,382.631470 438.768036,382.211731 
	C438.731781,381.932678 438.695557,381.653625 438.659302,381.374573 
	C437.118713,381.082916 435.578125,380.791290 434.336884,380.556305 
	C433.594971,378.756470 432.964569,377.227112 432.051178,375.011322 
	C430.833771,378.234711 429.415771,380.345856 429.383881,382.477692 
	C429.341309,385.326385 430.714752,388.173370 430.865173,391.053192 
	C431.088043,395.320160 432.638092,397.657135 438.060333,396.908630 
M240.236572,386.593506 
	C240.036652,384.717560 239.836716,382.841583 239.636795,380.965637 
	C239.084579,381.002899 238.532349,381.040192 237.980133,381.077454 
	C237.980133,384.471802 238.258255,387.901001 237.839828,391.242950 
	C237.678040,392.535095 236.125961,394.353485 234.880264,394.678375 
	C231.123352,395.658173 230.464401,392.826416 230.303391,389.979828 
	C230.134079,386.986389 230.137131,383.983185 230.064865,380.984283 
	C229.453812,381.024261 228.842758,381.064270 228.231705,381.104279 
	C228.149918,382.528412 228.009781,383.951965 227.995667,385.376770 
	C227.891739,395.860870 227.899811,395.858368 238.019028,396.438904 
	C238.606720,396.472595 239.188812,396.604065 240.236618,396.758148 
	C240.236618,393.459076 240.236618,390.497681 240.236572,386.593506 
M248.876617,383.121582 
	C250.896225,382.894165 252.915848,382.666748 255.859436,382.335297 
	C251.789398,379.342651 248.624298,379.731628 245.943222,382.350464 
	C243.183701,385.045868 243.688370,393.388519 246.419785,395.736908 
	C248.684692,397.684174 252.493332,397.525452 254.811127,395.387207 
	C245.462723,394.482819 246.146317,392.415741 248.876617,383.121582 
M275.792084,384.342285 
	C275.811676,386.823456 275.772980,389.306702 275.862976,391.785339 
	C276.052032,396.992401 277.874634,398.052734 282.891357,395.948944 
	C277.417175,393.552185 276.985413,392.281952 278.510193,383.220184 
	C280.016113,382.930084 281.479614,382.648132 282.943085,382.366211 
	C282.927887,382.051575 282.912689,381.736938 282.897491,381.422272 
	C281.415680,381.131622 279.933868,380.840973 278.482727,380.556335 
	C278.093567,378.937408 277.724152,377.400635 277.173370,375.109192 
	C275.771271,378.174103 274.803314,380.290009 273.799835,382.483582 
	C274.257996,382.740997 274.961548,383.136353 275.792084,384.342285 
M360.969696,392.250305 
	C361.088837,393.760376 361.207947,395.270477 361.327057,396.780548 
	C361.900269,396.768188 362.473450,396.755829 363.046661,396.743469 
	C363.046661,393.758606 362.326202,390.522522 363.254089,387.861145 
	C364.139832,385.320679 366.742462,383.378784 368.691742,381.052795 
	C366.301086,381.270782 363.836395,381.495514 360.969635,381.756927 
	C360.969635,384.681305 360.969635,387.997498 360.969696,392.250305 
M288.027100,395.937073 
	C288.027100,390.967621 288.027100,385.998138 288.027100,381.028687 
	C287.351532,381.055450 286.675995,381.082214 286.000427,381.108978 
	C286.000427,385.496155 285.923859,389.885895 286.068817,394.268280 
	C286.095917,395.087646 287.010620,395.877686 288.027100,395.937073 
z"/>
<path fill="#C0C0C0" opacity="1.000000" stroke="none" 
	d="
M455.506592,111.024696 
	C472.210144,127.612595 488.572845,144.144775 504.933990,160.678467 
	C506.102112,161.858932 507.258972,163.050522 508.906555,164.732635 
	C501.009033,172.656204 493.164246,180.635345 485.135284,188.424652 
	C484.275146,189.259109 482.342407,189.194214 480.906433,189.197693 
	C461.611847,189.244354 442.316986,189.262283 423.022736,189.171051 
	C421.329498,189.163055 419.152771,188.860779 418.027222,187.809891 
	C410.137939,180.443573 402.466003,172.844467 394.132233,164.744095 
	C398.154541,160.996475 401.530792,157.850769 405.050842,154.397888 
	C419.594208,139.841095 433.993225,125.590820 448.395508,111.343857 
	C449.101074,110.645844 449.835297,109.976753 450.753967,109.106918 
	C452.213531,109.723129 453.689423,110.346230 455.506592,111.024696 
z"/>
<path fill="#BFBFBF" opacity="1.000000" stroke="none" 
	d="
M395.316589,451.337830 
	C402.429840,443.726654 409.610046,436.319794 417.023285,429.154022 
	C418.393921,427.829132 420.699768,426.798645 422.584076,426.782135 
	C442.057617,426.611481 461.533997,426.600861 481.007202,426.790833 
	C483.030121,426.810547 485.487885,427.939728 486.975159,429.359406 
	C493.833252,435.905853 500.418945,442.737579 507.330139,449.742554 
	C505.120880,453.030579 502.919891,456.276733 500.207397,459.016510 
	C485.752014,473.617493 471.156586,488.079742 456.636017,502.616302 
	C451.577332,507.680542 451.388855,507.779633 446.471008,502.854706 
	C429.443726,485.803070 412.462524,468.705444 395.316589,451.337830 
z"/>
<path fill="#FB0039" opacity="1.000000" stroke="none" 
	d="
M682.257568,341.871124 
	C673.361084,337.152466 669.918945,329.405487 669.926331,319.721741 
	C669.937988,304.426727 669.929382,289.131683 669.929382,273.231598 
	C665.797119,273.231598 661.912720,273.231598 657.714294,273.231598 
	C657.714294,267.065491 657.714294,261.504822 657.714294,255.398529 
	C661.728210,255.398529 665.480042,255.398529 669.742065,255.398529 
	C669.742065,248.134048 669.742065,241.388031 669.742065,234.014999 
	C676.839844,234.014999 683.433167,234.014999 690.487061,233.970581 
	C691.806519,234.455338 692.665405,234.984512 693.614868,236.221558 
	C693.705444,242.858337 693.705444,248.787216 693.705444,255.302261 
	C697.944031,255.302261 701.386414,255.360016 704.825806,255.283920 
	C707.563843,255.223358 708.690186,256.418060 708.645691,259.173553 
	C708.573425,263.648987 708.726624,268.128052 708.345459,272.722534 
	C703.330444,272.839447 698.754578,272.839447 693.971375,272.839447 
	C693.971375,285.581085 693.971191,297.385681 693.971436,309.190277 
	C693.971680,323.894104 694.252136,324.167938 709.066467,324.401398 
	C709.121948,327.577789 709.186035,330.299622 709.250183,333.021454 
	C708.473572,342.738312 708.478760,342.794189 698.433350,343.730133 
	C695.803833,343.975128 693.131042,343.755402 689.753723,343.540527 
	C686.772095,342.845001 684.514832,342.358063 682.257568,341.871124 
z"/>
<path fill="#BEBEBE" opacity="1.000000" stroke="none" 
	d="
M592.930298,188.857468 
	C586.619141,188.984238 580.308289,189.205902 573.996826,189.220337 
	C553.555664,189.267090 533.114380,189.237793 512.367188,189.237793 
	C512.367188,181.612747 512.367188,174.358170 512.367188,166.372147 
	C529.197144,166.372147 546.089478,166.372147 563.443604,166.349899 
	C571.132568,166.480865 578.359192,166.690002 585.587219,166.771378 
	C592.666321,166.851074 592.665527,166.793976 592.729736,173.644196 
	C592.737488,174.468948 592.771362,175.293457 592.803955,177.007248 
	C592.853333,181.550095 592.891785,185.203781 592.930298,188.857468 
z"/>
<path fill="#BFBFBF" opacity="1.000000" stroke="none" 
	d="
M374.529663,166.100494 
	C380.409180,165.988541 385.853424,165.988541 391.593872,165.988541 
	C391.593872,174.026138 391.593872,181.257874 391.593872,189.180466 
	C365.003448,189.180466 338.452667,189.180466 311.436981,188.673187 
	C310.922699,186.787643 310.873352,185.409393 310.908508,183.567871 
	C311.030579,177.753540 311.068146,172.402496 311.105682,167.051422 
	C329.795532,166.930496 348.485504,166.824448 367.175079,166.669586 
	C369.482635,166.650482 371.787994,166.371185 374.529663,166.100494 
z"/>
<path fill="#BFBFBF" opacity="1.000000" stroke="none" 
	d="
M512.472656,449.101929 
	C512.019958,441.694366 512.019958,434.410645 512.019958,426.676453 
	C514.390015,426.676453 516.184998,426.676453 517.979919,426.676453 
	C540.804260,426.676544 563.628601,426.668976 586.452942,426.691193 
	C588.274170,426.692993 590.095154,426.900452 592.347412,427.170837 
	C592.729675,433.141754 592.556519,438.956757 592.680359,444.765442 
	C592.750793,448.064148 591.820435,449.471466 588.183899,449.444702 
	C563.098572,449.260132 538.011719,449.274994 512.472656,449.101929 
z"/>
<path fill="#C0C1C1" opacity="1.000000" stroke="none" 
	d="
M310.818329,435.031586 
	C310.948883,432.415741 311.079437,429.799927 311.222076,426.941528 
	C338.028290,426.941528 364.576630,426.941528 391.933502,426.941528 
	C391.933502,433.992462 391.933502,441.057373 391.962158,448.596588 
	C377.072113,449.165253 362.153473,449.296265 347.234589,449.342377 
	C335.459076,449.378784 323.683228,449.310791 311.456726,448.875366 
	C310.942261,448.294189 310.878601,448.126831 310.814911,447.959442 
	C310.850739,447.225647 310.886536,446.491882 310.933350,444.947205 
	C310.902344,441.101410 310.860321,438.066498 310.818329,435.031586 
z"/>
<path fill="#03060A" opacity="1.000000" stroke="none" 
	d="
M208.705963,212.787964 
	C205.861084,214.806015 202.862061,216.949341 199.544296,218.322540 
	C194.549103,220.389984 192.820724,223.679321 192.879181,229.091766 
	C193.133881,252.677521 192.990738,276.267517 193.000031,299.855957 
	C193.003235,307.988678 193.013794,307.988342 184.919418,308.004303 
	C182.593781,308.008881 180.268158,308.016052 177.476410,308.017639 
	C174.393265,300.682098 176.535812,293.905365 178.614944,286.799713 
	C179.806198,282.728577 179.794403,277.209747 177.933365,273.562683 
	C173.684677,265.236511 171.605957,257.367432 175.538498,248.418976 
	C176.635132,245.923584 176.594238,242.916641 177.005615,240.134079 
	C177.966995,233.631104 180.598145,228.224503 186.266739,224.401459 
	C191.387634,220.947784 196.095383,216.862808 201.321808,213.594269 
	C203.173767,212.436096 206.017929,212.864471 208.705963,212.787964 
z"/>
<path fill="#03070D" opacity="1.000000" stroke="none" 
	d="
M681.834106,341.903625 
	C684.514832,342.358063 686.772095,342.845001 689.333496,343.594086 
	C688.349365,344.147430 686.748108,344.047241 685.820251,344.789185 
	C673.805359,354.397003 658.766785,353.698547 644.901672,357.006195 
	C632.050232,360.072021 618.618591,361.816345 608.374817,371.438721 
	C602.622803,376.841766 598.870911,383.553375 598.128540,391.379333 
	C597.299805,400.115112 597.571106,408.952148 596.857056,417.703735 
	C596.636230,420.409790 594.758728,422.980652 593.345642,425.803345 
	C592.730103,425.520233 592.408691,425.047180 592.264771,423.962372 
	C592.572021,421.383575 592.900757,419.406128 592.798218,417.451263 
	C592.259644,407.179047 591.156799,396.913940 591.124451,386.643616 
	C591.088867,375.355682 597.232666,366.207886 606.528259,361.440735 
	C618.101013,355.505737 630.921692,352.176636 644.382019,351.748993 
	C649.969849,351.571442 655.471313,348.676239 661.012085,347.016846 
	C663.047546,347.008850 665.083069,347.000885 667.978943,346.996155 
	C672.917419,347.215332 676.742737,346.966125 678.012573,342.014465 
	C679.145264,341.988342 680.277893,341.962219 681.834106,341.903625 
z"/>
<path fill="#040A11" opacity="1.000000" stroke="none" 
	d="
M176.631241,308.029083 
	C177.019257,314.292419 176.292130,320.658783 177.193466,326.785583 
	C178.194855,333.592224 180.685684,340.179138 182.520096,346.863892 
	C186.372574,360.902588 191.101517,374.815338 188.403961,389.768280 
	C188.211624,390.834381 188.615173,392.060181 188.931458,393.157013 
	C190.572388,398.847351 192.275024,404.519928 193.980759,410.597076 
	C188.473068,409.723572 184.811569,405.815247 183.352890,400.905304 
	C181.492615,394.643585 179.686401,387.830872 180.281708,381.483093 
	C181.625992,367.148682 178.089722,353.899658 174.049438,340.546936 
	C171.226791,331.218384 171.106049,321.611328 172.256622,312.039185 
	C172.433990,310.563538 174.852386,309.357269 176.631241,308.029083 
z"/>
<path fill="#04070C" opacity="1.000000" stroke="none" 
	d="
M709.597961,332.993713 
	C709.186035,330.299622 709.121948,327.577789 709.297119,324.179352 
	C710.365295,322.004883 711.194092,320.506989 712.359497,318.868713 
	C713.466492,315.156525 714.236877,311.584686 715.254272,308.008484 
	C715.501221,308.004089 715.995117,307.996338 716.370239,307.964600 
	C717.793701,306.650421 719.769470,305.348328 719.742859,304.088562 
	C719.536743,294.347229 717.777649,284.885132 712.995300,276.239563 
	C712.445679,275.245941 711.008911,274.743042 709.753662,273.804993 
	C709.277466,273.266785 709.031006,272.936188 708.784668,272.605591 
	C708.726624,268.128052 708.573425,263.648987 708.645691,259.173553 
	C708.690186,256.418060 707.563843,255.223358 704.825806,255.283920 
	C701.386414,255.360016 697.944031,255.302261 693.705444,255.302261 
	C693.705444,248.787216 693.705444,242.858337 693.798340,236.468964 
	C698.871826,240.895508 704.863159,245.115250 708.622375,250.808716 
	C716.404053,262.594391 720.291748,276.281555 724.173645,289.742004 
	C725.553101,294.525146 724.723267,299.952789 724.822205,305.087769 
	C724.833618,305.680573 724.457825,306.692230 724.047668,306.819275 
	C718.959045,308.395813 720.362793,312.635864 719.912415,316.247894 
	C719.043030,323.220032 716.439392,329.286133 709.597961,332.993713 
z"/>
<path fill="#04090F" opacity="1.000000" stroke="none" 
	d="
M310.494995,434.867340 
	C310.860321,438.066498 310.902344,441.101410 310.858398,444.586487 
	C307.648926,443.638367 304.191437,442.704315 301.470123,440.746857 
	C295.464813,436.427124 289.376801,432.950897 281.855255,431.578857 
	C268.797180,429.196838 255.888168,425.986450 242.944321,423.003387 
	C241.285461,422.621124 239.791962,421.521271 238.091431,420.424133 
	C257.905884,419.616455 277.749268,420.727600 297.434540,424.064148 
	C300.355988,424.559326 303.346558,425.224670 306.003479,426.460083 
	C307.341064,427.082001 308.154602,429.082825 308.920776,430.603363 
	C309.554413,431.860779 309.770538,433.328522 310.494995,434.867340 
z"/>
<path fill="#04070C" opacity="1.000000" stroke="none" 
	d="
M593.022278,189.199448 
	C592.891785,185.203781 592.853333,181.550095 592.912231,177.446426 
	C597.757446,176.257019 601.014160,178.426743 603.224854,182.398392 
	C606.385803,188.077316 611.148132,191.702499 616.657471,195.154739 
	C622.668457,198.921310 627.576416,204.448120 633.005676,209.548676 
	C627.839417,208.796112 623.455322,206.625946 619.126404,203.138596 
	C615.447998,200.175217 609.888611,199.177536 604.984009,198.203506 
	C599.470764,197.108597 595.671204,194.348923 593.022278,189.199448 
z"/>
<path fill="#03070D" opacity="1.000000" stroke="none" 
	d="
M310.824005,184.031143 
	C310.873352,185.409393 310.922699,186.787643 310.974915,188.579865 
	C307.655090,194.338608 302.635925,195.729538 296.617279,196.154877 
	C289.565491,196.653198 282.591492,198.252640 275.292908,199.201691 
	C277.002289,197.829941 278.943420,196.515594 281.014191,195.454193 
	C286.603180,192.589554 292.142853,189.588104 297.908417,187.123688 
	C301.424500,185.620819 305.322113,185.010529 309.708344,184.009186 
	C310.368347,184.019028 310.824005,184.031143 310.824005,184.031143 
z"/>
<path fill="#0B1728" opacity="1.000000" stroke="none" 
	d="
M310.908508,183.567871 
	C310.824005,184.031143 310.368347,184.019028 310.139587,184.011093 
	C310.135986,178.565323 310.361115,173.127487 310.845947,167.370544 
	C311.068146,172.402496 311.030579,177.753540 310.908508,183.567871 
z"/>
<path fill="#03060A" opacity="1.000000" stroke="none" 
	d="
M215.782013,211.830338 
	C215.218857,212.332077 214.430222,212.640213 213.313019,212.940521 
	C213.841812,212.500717 214.699188,212.068726 215.782013,211.830338 
z"/>
<path fill="#0B1728" opacity="1.000000" stroke="none" 
	d="
M310.712830,448.089783 
	C310.878601,448.126831 310.942261,448.294189 311.008179,448.730225 
	C310.658264,448.853821 310.525055,448.594238 310.712830,448.089783 
z"/>
<path fill="#FD0039" opacity="1.000000" stroke="none" 
	d="
M378.989655,332.954651 
	C378.989655,296.848877 378.989655,261.237793 378.989655,225.130753 
	C387.001221,225.130753 394.463226,224.970261 401.905731,225.279373 
	C403.238159,225.334732 404.886353,227.091400 405.719879,228.467621 
	C419.410370,251.072464 432.992462,273.742920 446.604614,296.395264 
	C447.103088,297.224854 447.659149,298.019867 448.881592,299.893402 
	C448.881592,274.441772 448.881592,250.124069 448.881592,225.465805 
	C457.353363,225.465805 465.269501,225.465805 473.595520,225.465805 
	C473.595520,264.092438 473.595520,302.790405 473.595520,342.030823 
	C465.946655,342.030823 458.328552,342.191345 450.730011,341.877594 
	C449.417175,341.823395 447.818481,339.981293 446.974335,338.587921 
	C433.460999,316.282410 420.050171,293.914764 406.608978,271.565521 
	C406.047211,270.631409 405.417114,269.738373 404.170258,267.837311 
	C404.170258,293.084686 404.170258,317.150055 404.170258,341.631165 
	C395.782104,341.631165 387.731964,341.631165 378.989655,341.631165 
	C378.989655,338.984039 378.989655,336.216675 378.989655,332.954651 
z"/>
<path fill="#FA0039" opacity="1.000000" stroke="none" 
	d="
M194.268005,333.906219 
	C194.267685,297.489288 194.267685,261.558075 194.267685,225.371521 
	C220.677948,225.371521 246.437134,225.371521 272.591949,225.371521 
	C272.591949,231.970428 272.591949,238.537125 272.591949,245.689453 
	C255.329529,245.689453 237.938400,245.689453 220.203369,245.689453 
	C220.203369,254.653427 220.203369,263.045502 220.203369,272.018005 
	C234.965347,272.018005 249.691040,272.018005 264.707153,272.018005 
	C264.707153,278.835266 264.707153,285.081177 264.707153,291.861633 
	C249.970078,291.861633 235.241028,291.861633 220.185730,291.861633 
	C220.185730,302.090668 220.185730,311.791473 220.185730,321.852844 
	C237.689880,321.852844 254.963684,321.852844 272.618958,321.852844 
	C272.618958,328.585876 272.618958,334.973236 272.618958,341.711426 
	C246.777115,341.711426 220.880325,341.711426 194.268341,341.711426 
	C194.268341,339.270264 194.268341,336.831116 194.268005,333.906219 
z"/>
<path fill="#FD0039" opacity="1.000000" stroke="none" 
	d="
M294.238403,335.780151 
	C286.110291,327.555511 282.674286,317.663635 282.007355,306.753723 
	C281.325256,295.595978 281.395844,284.496124 285.903931,273.881927 
	C292.625244,258.056671 308.304565,250.097992 324.075958,255.201172 
	C328.173737,256.527100 331.764069,259.421356 335.881775,261.762604 
	C335.881775,247.777191 335.881775,233.712311 335.881775,219.327301 
	C344.020020,219.327301 351.743195,219.327301 359.750793,219.327301 
	C359.750793,260.037354 359.750793,300.634766 359.750793,341.640839 
	C352.789398,341.640839 345.738098,341.640839 338.409943,341.640839 
	C337.997467,339.329254 337.570221,336.934845 336.971008,333.576904 
	C331.031372,340.280670 324.292572,343.929810 315.872162,343.970581 
	C307.716949,344.010071 300.523529,341.629364 294.238403,335.780151 
M328.851501,322.790344 
	C333.986542,319.978333 336.421326,315.958923 336.068054,309.804413 
	C335.610718,301.836823 335.971771,293.823090 335.951294,285.829285 
	C335.936523,280.058624 332.561920,275.689453 327.015717,274.180176 
	C317.423584,271.569824 308.868011,275.924957 307.403320,285.713684 
	C306.147095,294.109314 306.067261,302.966095 307.245087,311.369751 
	C308.769989,322.249817 317.449341,326.509094 328.851501,322.790344 
z"/>
<path fill="#FB0039" opacity="1.000000" stroke="none" 
	d="
M489.997498,302.852051 
	C489.501160,291.356262 491.105103,280.757507 497.214844,271.345215 
	C507.432098,255.605133 522.367371,251.925903 538.425110,254.529358 
	C555.396301,257.280945 565.677612,268.641754 568.024109,285.625427 
	C568.749146,290.873444 568.726318,296.226685 569.000000,301.534088 
	C569.083374,303.151276 569.012939,304.776398 569.012939,306.865295 
	C550.762634,306.865295 533.005493,306.865295 514.747925,306.865295 
	C515.807373,314.341370 519.215637,319.437988 525.585815,322.395203 
	C534.914246,326.725739 545.182129,324.255432 555.754944,315.173676 
	C559.451599,319.433105 563.149109,323.693542 566.802612,327.903290 
	C558.383057,341.448151 538.436523,347.346313 519.454041,342.061981 
	C501.838898,337.158295 490.198669,321.852020 489.997498,302.852051 
M535.280640,273.947266 
	C523.036072,270.518921 514.937317,280.329987 515.578918,290.100037 
	C525.257751,290.100037 534.945374,290.100037 544.590820,290.100037 
	C545.624207,281.404572 543.443665,277.400299 535.280640,273.947266 
z"/>
<path fill="#FB0039" opacity="1.000000" stroke="none" 
	d="
M590.811340,313.778473 
	C591.990967,311.732330 592.732361,309.786163 594.013672,308.308044 
	C600.209778,301.160370 599.016357,294.658569 593.977478,287.107727 
	C587.381592,277.223633 582.025085,266.512482 575.645752,255.296036 
	C584.250671,255.296036 591.993958,255.165039 599.723206,255.436661 
	C600.888428,255.477631 602.333618,257.200867 603.060059,258.480438 
	C607.052612,265.513519 610.861755,272.650635 615.134766,280.487183 
	C619.394226,272.749481 623.351929,265.746735 627.107422,258.637238 
	C628.432617,256.128357 630.066467,255.108368 632.977234,255.202301 
	C639.788086,255.422104 646.610901,255.272522 654.153687,255.272522 
	C653.480591,256.875793 653.118835,258.051819 652.527344,259.097992 
	C646.481140,269.792725 640.652283,280.623260 634.210999,291.075836 
	C631.243896,295.890747 631.062256,299.645996 634.069275,304.542633 
	C640.841431,315.570312 647.004456,326.972198 653.403564,338.228516 
	C653.958984,339.205597 654.427246,340.232208 655.339111,342.030914 
	C646.954224,342.030914 639.229431,342.162659 631.518921,341.891296 
	C630.339355,341.849792 628.878601,340.147339 628.138428,338.870728 
	C623.893311,331.548492 619.826477,324.122925 615.145935,315.741882 
	C611.867004,321.649750 608.332214,326.664307 606.180908,332.215057 
	C603.015747,340.381622 597.894531,343.564301 589.224548,342.175201 
	C584.844910,341.473511 580.260010,342.052643 574.794189,342.052643 
	C580.277527,332.366760 585.449768,323.230469 590.811340,313.778473 
z"/>
<path fill="#070F1A" opacity="1.000000" stroke="none" 
	d="
M660.617065,346.986206 
	C655.471313,348.676239 649.969849,351.571442 644.382019,351.748993 
	C630.921692,352.176636 618.101013,355.505737 606.528259,361.440735 
	C597.232666,366.207886 591.088867,375.355682 591.124451,386.643616 
	C591.156799,396.913940 592.259644,407.179047 592.798218,417.451263 
	C592.900757,419.406128 592.572021,421.383575 592.209900,423.675598 
	C587.809204,415.068268 585.473633,405.758057 584.177856,395.907440 
	C583.222168,388.642487 583.614319,382.120209 586.682983,375.650940 
	C593.189331,361.934509 604.243896,354.501465 619.061584,352.212067 
	C631.155090,350.343536 643.223755,348.313141 655.322998,346.483673 
	C656.896240,346.245758 658.586121,346.779327 660.617065,346.986206 
z"/>
<path fill="#B9BABB" opacity="1.000000" stroke="none" 
	d="
M509.650024,179.034164 
	C509.652893,182.491180 509.652893,185.478867 509.652893,188.861053 
	C503.065033,188.861053 496.690460,188.861053 490.190033,188.861053 
	C496.649445,182.689377 503.045685,176.578079 509.647125,170.270706 
	C509.647125,172.755096 509.647125,175.659958 509.650024,179.034164 
z"/>
<path fill="#B9BABB" opacity="1.000000" stroke="none" 
	d="
M497.194397,426.643616 
	C501.444183,426.643677 505.230713,426.643677 509.346954,426.643677 
	C509.346954,433.265503 509.346954,439.452515 509.346954,444.773560 
	C503.468384,439.002045 497.223907,432.871277 490.880676,426.643555 
	C492.375946,426.643555 494.553558,426.643555 497.194397,426.643616 
z"/>
<path fill="#BEBEBE" opacity="1.000000" stroke="none" 
	d="
M412.186584,426.695251 
	C412.791962,427.235687 413.287140,428.069458 413.118652,428.237396 
	C407.043579,434.292389 400.906586,440.285309 394.404358,446.652893 
	C394.404358,439.926758 394.404358,433.596283 394.404358,426.678070 
	C400.255798,426.678070 406.011353,426.678070 412.186584,426.695251 
z"/>
<path fill="#BEBEBE" opacity="1.000000" stroke="none" 
	d="
M396.341034,170.657501 
	C402.417419,176.585800 408.243744,182.261444 414.930817,188.775620 
	C407.411591,188.775620 401.102905,188.775620 394.136932,188.775620 
	C394.136932,182.934036 394.124512,176.853699 394.218506,170.775009 
	C394.220581,170.642014 395.439606,170.527832 396.341034,170.657501 
z"/>
<path fill="#B2B3B5" opacity="1.000000" stroke="none" 
	d="
M381.732086,380.634949 
	C381.728271,386.350555 381.728271,391.634674 381.728271,396.918823 
	C381.028290,396.905884 380.328278,396.892975 379.628296,396.880035 
	C379.628296,389.673553 379.628296,382.467041 379.628296,375.003082 
	C382.263641,374.079803 384.047882,374.762787 385.245270,378.034760 
	C387.147705,383.233154 389.582764,388.236633 392.890289,393.184570 
	C392.890289,387.082336 392.890289,380.980103 392.890289,374.877869 
	C393.376129,374.862976 393.862000,374.848114 394.347839,374.833252 
	C394.347839,381.980530 394.347839,389.127808 394.347839,397.818359 
	C392.503998,396.345184 390.490967,395.490234 389.739319,393.999359 
	C387.172546,388.908142 385.049438,383.593231 382.178101,377.042938 
	C381.894135,379.072571 381.815033,379.638031 381.732086,380.634949 
z"/>
<path fill="#AAACAE" opacity="1.000000" stroke="none" 
	d="
M204.273148,386.462006 
	C201.724167,386.495453 199.604004,386.495453 197.256531,386.495453 
	C197.256531,389.302917 197.256531,391.569733 197.256531,394.187897 
	C200.909409,394.450653 204.440872,394.704651 207.972321,394.958649 
	C207.944412,395.445496 207.916489,395.932312 207.888565,396.419128 
	C203.596130,396.419128 199.303696,396.419128 194.571289,396.419128 
	C194.571289,389.645844 194.571289,382.583282 194.571289,375.095459 
	C198.856018,375.095459 203.303009,375.095459 207.750000,375.095459 
	C207.797302,375.587494 207.844604,376.079498 207.891907,376.571533 
	C204.435425,376.772339 200.978928,376.973145 197.280167,377.188049 
	C197.280167,379.450226 197.280167,381.519226 197.280167,384.171997 
	C199.713837,384.171997 201.993530,384.116699 204.259125,384.269928 
	C204.454498,384.283112 204.556549,385.676361 204.273148,386.462006 
z"/>
<path fill="#AAACAE" opacity="1.000000" stroke="none" 
	d="
M457.872498,373.981873 
	C460.118408,374.487122 461.948303,374.969116 464.931122,375.754761 
	C459.906158,378.282898 453.714447,373.822205 451.685181,379.624756 
	C450.491058,383.039246 450.590881,387.299042 451.361969,390.911133 
	C452.386475,395.710449 456.596405,394.938568 461.624054,394.481781 
	C460.647034,391.361542 459.841370,388.788574 458.857941,385.647827 
	C459.590912,385.582306 461.447815,385.416290 463.620880,385.221985 
	C463.738892,386.913025 463.991791,388.062073 463.863129,389.166656 
	C463.505371,392.237885 465.696991,396.495667 459.921539,397.069092 
	C452.922333,397.763977 449.353912,395.879242 448.295288,390.065674 
	C447.854401,387.644257 447.850189,385.075897 448.076477,382.613739 
	C448.636353,376.521332 450.785126,374.650269 457.872498,373.981873 
z"/>
<path fill="#AAACAE" opacity="1.000000" stroke="none" 
	d="
M223.728638,376.489532 
	C223.737167,383.381989 223.737167,389.820587 223.737167,396.835419 
	C219.513504,395.189606 214.084137,399.966064 211.820099,394.275818 
	C210.512665,390.989838 210.912598,386.319305 212.257874,382.957764 
	C213.018478,381.057220 217.249298,380.545532 219.917053,379.408264 
	C220.178253,379.794220 220.439438,380.180176 220.700638,380.566132 
	C220.911194,378.388947 221.121750,376.211792 221.332291,374.034607 
	C221.654205,373.921448 221.976120,373.808289 222.298035,373.695099 
	C222.772049,374.475311 223.246078,375.255493 223.728638,376.489532 
M213.229248,385.990662 
	C213.174805,387.473572 212.578110,389.254578 213.191498,390.370361 
	C214.139648,392.095093 215.725983,394.273438 217.383163,394.618286 
	C219.969681,395.156525 221.389221,393.290192 221.065079,390.322662 
	C220.804230,387.934509 221.012283,385.495087 221.012283,381.298126 
	C217.709442,383.054199 215.663040,384.142242 213.229248,385.990662 
z"/>
<path fill="#AFB0B1" opacity="1.000000" stroke="none" 
	d="
M298.242035,380.214233 
	C304.591064,379.958466 306.424286,384.895813 305.964172,390.125153 
	C305.516296,395.215485 302.955719,397.267822 298.277893,397.067078 
	C294.110474,396.888245 292.646088,394.237610 292.119141,390.686462 
	C291.315857,385.272583 293.097107,382.104553 298.242035,380.214233 
M296.246033,394.082397 
	C302.237335,395.723541 304.167908,393.721039 302.855194,386.450531 
	C302.591888,384.992126 300.366150,383.118744 298.844482,382.911621 
	C297.722046,382.758820 295.441040,384.834991 295.156738,386.221619 
	C294.683838,388.527893 295.398590,391.077728 296.246033,394.082397 
z"/>
<path fill="#AFB0B1" opacity="1.000000" stroke="none" 
	d="
M356.458923,384.881958 
	C356.436340,388.040527 356.821472,391.013519 355.908844,393.512573 
	C355.343597,395.060364 352.844635,396.749268 351.145630,396.823883 
	C348.961853,396.919769 345.043793,395.806091 344.795013,394.607208 
	C344.003052,390.790222 343.463318,386.236938 344.876770,382.815186 
	C346.747681,378.286011 353.417877,379.523743 356.458923,384.881958 
M354.006989,391.072632 
	C353.991516,389.254425 354.463562,387.230652 353.810211,385.681458 
	C353.263031,384.383942 351.406464,382.873138 350.120209,382.864471 
	C348.789368,382.855560 346.925507,384.272125 346.255341,385.563568 
	C345.574402,386.875854 345.662292,388.929565 346.152435,390.414703 
	C346.686737,392.033600 348.002228,394.497589 349.099457,394.563690 
	C350.660553,394.657776 352.333130,392.900513 354.006989,391.072632 
z"/>
<path fill="#B2B3B5" opacity="1.000000" stroke="none" 
	d="
M264.403687,386.987305 
	C265.773438,386.389130 266.692810,385.811981 267.612213,385.234863 
	C266.756653,384.387634 266.009155,383.006622 265.022522,382.806854 
	C263.104584,382.418610 261.052429,382.693207 257.724640,382.693207 
	C266.618011,378.174713 269.932312,380.046753 270.093842,387.983124 
	C270.149902,390.737732 270.757294,393.481110 271.134827,396.399292 
	C268.688782,396.572113 265.396637,397.253235 262.249390,396.837494 
	C260.680573,396.630249 258.469269,394.572601 258.207550,393.064148 
	C257.943451,391.541748 259.519623,389.491516 260.712280,388.013702 
	C261.302155,387.282776 262.842865,387.319153 264.403687,386.987305 
M264.664520,389.015381 
	C263.199341,390.154114 261.734161,391.292847 260.268982,392.431610 
	C261.117432,393.269104 262.084595,394.894043 262.790741,394.787598 
	C264.500610,394.529816 266.088806,393.465149 267.726044,392.725708 
	C266.977112,391.482483 266.228180,390.239258 264.664520,389.015381 
z"/>
<path fill="#A4A6A9" opacity="1.000000" stroke="none" 
	d="
M487.376648,383.620483 
	C486.732147,388.277893 486.404449,392.600861 486.076752,396.923859 
	C485.530304,396.888947 484.983826,396.854004 484.437378,396.819092 
	C484.437378,391.711121 484.437378,386.603119 484.437378,381.459290 
	C496.727692,379.922974 498.938843,382.662109 496.247345,398.115967 
	C495.217224,396.219086 494.419983,395.362762 494.313263,394.427612 
	C494.089111,392.463562 494.265198,390.457092 494.210358,388.469849 
	C494.050812,382.685791 493.709381,382.425110 487.376648,383.620483 
z"/>
<path fill="#AFB0B1" opacity="1.000000" stroke="none" 
	d="
M401.475525,395.711975 
	C400.505219,393.116302 399.364319,390.776031 399.319031,388.414703 
	C399.216400,383.062866 402.240936,379.881134 406.471771,380.199890 
	C410.889252,380.532745 412.530975,383.388672 411.656921,389.788239 
	C408.637909,389.788239 405.547058,389.788239 402.057648,389.788239 
	C402.526581,397.300873 408.623718,393.629730 412.544586,395.841797 
	C408.472778,397.493469 405.188904,397.658844 401.475525,395.711975 
M406.401794,387.947418 
	C407.519653,387.858917 408.637512,387.770416 409.766144,387.681061 
	C410.218201,384.520966 409.082153,382.559326 405.986420,382.575500 
	C402.960236,382.591278 401.633636,384.407074 402.210480,387.668732 
	C403.311768,387.760895 404.426422,387.854156 406.401794,387.947418 
z"/>
<path fill="#AFB0B1" opacity="1.000000" stroke="none" 
	d="
M470.657196,390.145996 
	C469.743378,393.709167 471.663788,394.791107 474.579681,394.875275 
	C476.279907,394.924347 477.982727,394.884216 479.675781,395.518494 
	C476.214020,397.397156 472.622375,398.041321 469.360962,395.512726 
	C466.662170,393.420288 466.084503,385.683685 468.853607,383.068604 
	C470.535004,381.480774 473.834656,380.563446 476.163483,380.923218 
	C480.882568,381.652344 480.219177,385.688293 479.891693,389.958130 
	C476.901978,389.958130 473.974854,389.958130 470.657196,390.145996 
M471.189636,383.436829 
	C470.701996,384.720337 470.214386,386.003876 469.595734,387.632263 
	C472.763916,387.632263 475.276764,387.632263 477.911560,387.632263 
	C477.904480,383.064545 475.809753,381.821167 471.189636,383.436829 
z"/>
<path fill="#A4A6A9" opacity="1.000000" stroke="none" 
	d="
M341.343506,373.781799 
	C340.409790,374.969849 339.138336,375.963562 336.877991,377.730133 
	C335.367035,380.502472 338.809570,380.755493 342.737823,381.862579 
	C339.993500,382.665070 338.721344,383.037048 336.792297,383.601135 
	C336.792297,387.808136 336.792297,392.303894 336.792297,396.799652 
	C336.299774,396.879517 335.807251,396.959351 335.314728,397.039185 
	C334.946899,395.737396 334.471100,394.455078 334.232086,393.130066 
	C333.595123,389.598450 333.184937,386.022278 332.448608,382.513336 
	C331.741272,379.142426 337.207214,373.313019 341.343506,373.781799 
z"/>
<path fill="#AFB0B1" opacity="1.000000" stroke="none" 
	d="
M421.481079,391.792175 
	C419.553284,393.524658 417.880005,395.495087 416.206696,397.465485 
	C415.612366,397.244385 415.018005,397.023254 414.423676,396.802124 
	C418.567841,391.576416 420.490021,386.377106 414.264893,381.274567 
	C414.857971,381.044281 415.451080,380.813965 416.044159,380.583679 
	C417.606079,382.370331 419.168030,384.157013 420.839874,386.069427 
	C422.441467,384.212830 424.025421,382.376678 425.609344,380.540527 
	C426.165710,380.705170 426.722076,380.869812 427.278442,381.034454 
	C422.083191,386.328003 422.293762,391.470337 427.598450,396.470123 
	C426.973297,396.744202 426.348114,397.018250 425.722961,397.292328 
	C424.393829,395.538239 423.064697,393.784149 421.481079,391.792175 
z"/>
<path fill="#B9BABB" opacity="1.000000" stroke="none" 
	d="
M312.018005,389.072571 
	C312.018005,391.928894 312.018005,394.321014 312.018005,396.713165 
	C311.523651,396.730988 311.029266,396.748810 310.534912,396.766632 
	C310.534912,391.738953 310.534912,386.711273 310.534912,380.625183 
	C313.806396,381.056274 319.764374,380.456299 320.579376,382.225494 
	C322.516937,386.431488 322.020599,391.758698 322.507660,396.632904 
	C321.667114,396.678772 320.826569,396.724640 319.986023,396.770477 
	C319.986023,394.147705 320.065582,391.521820 319.963989,388.902985 
	C319.859619,386.212769 320.693878,382.923645 316.273193,382.683136 
	C311.657257,382.432007 311.820251,385.475616 312.018005,389.072571 
z"/>
<path fill="#AAACAE" opacity="1.000000" stroke="none" 
	d="
M437.643127,396.972778 
	C432.638092,397.657135 431.088043,395.320160 430.865173,391.053192 
	C430.714752,388.173370 429.341309,385.326385 429.383881,382.477692 
	C429.415771,380.345856 430.833771,378.234711 432.051178,375.011322 
	C432.964569,377.227112 433.594971,378.756470 434.336884,380.556305 
	C435.578125,380.791290 437.118713,381.082916 438.659302,381.374573 
	C438.695557,381.653625 438.731781,381.932678 438.768036,382.211731 
	C437.207031,382.631470 435.646027,383.051208 433.614136,383.597595 
	C433.614136,385.130371 433.561310,386.750244 433.625336,388.365479 
	C433.749939,391.509094 432.788269,395.430786 438.145966,395.051666 
	C438.117401,395.670654 438.088867,396.289642 437.643127,396.972778 
z"/>
<path fill="#B9BABB" opacity="1.000000" stroke="none" 
	d="
M240.236603,387.064880 
	C240.236618,390.497681 240.236618,393.459076 240.236618,396.758148 
	C239.188812,396.604065 238.606720,396.472595 238.019028,396.438904 
	C227.899811,395.858368 227.891739,395.860870 227.995667,385.376770 
	C228.009781,383.951965 228.149918,382.528412 228.231705,381.104279 
	C228.842758,381.064270 229.453812,381.024261 230.064865,380.984283 
	C230.137131,383.983185 230.134079,386.986389 230.303391,389.979828 
	C230.464401,392.826416 231.123352,395.658173 234.880264,394.678375 
	C236.125961,394.353485 237.678040,392.535095 237.839828,391.242950 
	C238.258255,387.901001 237.980133,384.471802 237.980133,381.077454 
	C238.532349,381.040192 239.084579,381.002899 239.636795,380.965637 
	C239.836716,382.841583 240.036652,384.717560 240.236603,387.064880 
z"/>
<path fill="#AFB0B1" opacity="1.000000" stroke="none" 
	d="
M248.509583,383.355591 
	C246.146317,392.415741 245.462723,394.482819 254.811127,395.387207 
	C252.493332,397.525452 248.684692,397.684174 246.419785,395.736908 
	C243.688370,393.388519 243.183701,385.045868 245.943222,382.350464 
	C248.624298,379.731628 251.789398,379.342651 255.859436,382.335297 
	C252.915848,382.666748 250.896225,382.894165 248.509583,383.355591 
z"/>
<path fill="#B9BABB" opacity="1.000000" stroke="none" 
	d="
M275.728607,383.937012 
	C274.961548,383.136353 274.257996,382.740997 273.799835,382.483582 
	C274.803314,380.290009 275.771271,378.174103 277.173370,375.109192 
	C277.724152,377.400635 278.093567,378.937408 278.482727,380.556335 
	C279.933868,380.840973 281.415680,381.131622 282.897491,381.422272 
	C282.912689,381.736938 282.927887,382.051575 282.943085,382.366211 
	C281.479614,382.648132 280.016113,382.930084 278.510193,383.220184 
	C276.985413,392.281952 277.417175,393.552185 282.891357,395.948944 
	C277.874634,398.052734 276.052032,396.992401 275.862976,391.785339 
	C275.772980,389.306702 275.811676,386.823456 275.728607,383.937012 
z"/>
<path fill="#BEBEBE" opacity="1.000000" stroke="none" 
	d="
M360.969666,391.781982 
	C360.969635,387.997498 360.969635,384.681305 360.969635,381.756927 
	C363.836395,381.495514 366.301086,381.270782 368.691742,381.052795 
	C366.742462,383.378784 364.139832,385.320679 363.254089,387.861145 
	C362.326202,390.522522 363.046661,393.758606 363.046661,396.743469 
	C362.473450,396.755829 361.900269,396.768188 361.327057,396.780548 
	C361.207947,395.270477 361.088837,393.760376 360.969666,391.781982 
z"/>
<path fill="#BFBFBF" opacity="1.000000" stroke="none" 
	d="
M287.771423,396.309143 
	C287.010620,395.877686 286.095917,395.087646 286.068817,394.268280 
	C285.923859,389.885895 286.000427,385.496155 286.000427,381.108978 
	C286.675995,381.082214 287.351532,381.055450 288.027100,381.028687 
	C288.027100,385.998138 288.027100,390.967621 287.771423,396.309143 
z"/>
<path fill="#070F1A" opacity="1.000000" stroke="none" 
	d="
M677.651855,342.075317 
	C676.742737,346.966125 672.917419,347.215332 668.415161,346.994049 
	C671.091003,345.371155 674.191101,343.753662 677.651855,342.075317 
z"/>
<path fill="#0B1525" opacity="1.000000" stroke="none" 
	d="
M708.345459,272.722534 
	C709.031006,272.936188 709.277466,273.266785 709.832642,274.181366 
	C712.092712,285.842346 714.043945,296.919342 715.995117,307.996338 
	C715.995117,307.996338 715.501221,308.004089 714.883423,308.098999 
	C710.004150,311.070374 712.833313,315.417084 712.022949,319.009094 
	C711.194092,320.506989 710.365295,322.004883 709.305786,323.724792 
	C694.252136,324.167938 693.971680,323.894104 693.971436,309.190277 
	C693.971191,297.385681 693.971375,285.581085 693.971375,272.839447 
	C698.754578,272.839447 703.330444,272.839447 708.345459,272.722534 
z"/>
<path fill="#050C15" opacity="1.000000" stroke="none" 
	d="
M716.370239,307.964600 
	C714.043945,296.919342 712.092712,285.842346 710.062500,274.388977 
	C711.008911,274.743042 712.445679,275.245941 712.995300,276.239563 
	C717.777649,284.885132 719.536743,294.347229 719.742859,304.088562 
	C719.769470,305.348328 717.793701,306.650421 716.370239,307.964600 
z"/>
<path fill="#050C15" opacity="1.000000" stroke="none" 
	d="
M712.359497,318.868713 
	C712.833313,315.417084 710.004150,311.070374 714.636414,308.103394 
	C714.236877,311.584686 713.466492,315.156525 712.359497,318.868713 
z"/>
<path fill="#0C1627" opacity="1.000000" stroke="none" 
	d="
M328.465912,322.907837 
	C317.449341,326.509094 308.769989,322.249817 307.245087,311.369751 
	C306.067261,302.966095 306.147095,294.109314 307.403320,285.713684 
	C308.868011,275.924957 317.423584,271.569824 327.015717,274.180176 
	C332.561920,275.689453 335.936523,280.058624 335.951294,285.829285 
	C335.971771,293.823090 335.610718,301.836823 336.068054,309.804413 
	C336.421326,315.958923 333.986542,319.978333 328.465912,322.907837 
z"/>
<path fill="#0D1627" opacity="1.000000" stroke="none" 
	d="
M535.674805,273.998413 
	C543.443665,277.400299 545.624207,281.404572 544.590820,290.100037 
	C534.945374,290.100037 525.257751,290.100037 515.578918,290.100037 
	C514.937317,280.329987 523.036072,270.518921 535.674805,273.998413 
z"/>
<path fill="#0D192A" opacity="1.000000" stroke="none" 
	d="
M213.422943,385.610474 
	C215.663040,384.142242 217.709442,383.054199 221.012283,381.298126 
	C221.012283,385.495087 220.804230,387.934509 221.065079,390.322662 
	C221.389221,393.290192 219.969681,395.156525 217.383163,394.618286 
	C215.725983,394.273438 214.139648,392.095093 213.191498,390.370361 
	C212.578110,389.254578 213.174805,387.473572 213.422943,385.610474 
z"/>
<path fill="#0D192A" opacity="1.000000" stroke="none" 
	d="
M295.929626,393.803711 
	C295.398590,391.077728 294.683838,388.527893 295.156738,386.221619 
	C295.441040,384.834991 297.722046,382.758820 298.844482,382.911621 
	C300.366150,383.118744 302.591888,384.992126 302.855194,386.450531 
	C304.167908,393.721039 302.237335,395.723541 295.929626,393.803711 
z"/>
<path fill="#0D192A" opacity="1.000000" stroke="none" 
	d="
M353.982544,391.503387 
	C352.333130,392.900513 350.660553,394.657776 349.099457,394.563690 
	C348.002228,394.497589 346.686737,392.033600 346.152435,390.414703 
	C345.662292,388.929565 345.574402,386.875854 346.255341,385.563568 
	C346.925507,384.272125 348.789368,382.855560 350.120209,382.864471 
	C351.406464,382.873138 353.263031,384.383942 353.810211,385.681458 
	C354.463562,387.230652 353.991516,389.254425 353.982544,391.503387 
z"/>
<path fill="#141F2F" opacity="1.000000" stroke="none" 
	d="
M265.071899,389.005707 
	C266.228180,390.239258 266.977112,391.482483 267.726044,392.725708 
	C266.088806,393.465149 264.500610,394.529816 262.790741,394.787598 
	C262.084595,394.894043 261.117432,393.269104 260.268982,392.431610 
	C261.734161,391.292847 263.199341,390.154114 265.071899,389.005707 
z"/>
<path fill="#141F2F" opacity="1.000000" stroke="none" 
	d="
M405.971436,387.947418 
	C404.426422,387.854156 403.311768,387.760895 402.210480,387.668732 
	C401.633636,384.407074 402.960236,382.591278 405.986420,382.575500 
	C409.082153,382.559326 410.218201,384.520966 409.766144,387.681061 
	C408.637512,387.770416 407.519653,387.858917 405.971436,387.947418 
z"/>
<path fill="#141F2F" opacity="1.000000" stroke="none" 
	d="
M471.558533,383.222900 
	C475.809753,381.821167 477.904480,383.064545 477.911560,387.632263 
	C475.276764,387.632263 472.763916,387.632263 469.595734,387.632263 
	C470.214386,386.003876 470.701996,384.720337 471.558533,383.222900 
z"/>
</svg>